<svg width="56" height="69" viewBox="0 0 56 69" fill="none" xmlns="http://www.w3.org/2000/svg">
<g filter="url(#filter0_d_787_1534)">
<path d="M27.0503 64C23.0311 64 19.0395 63.4752 15.0754 62.4256C11.1113 61.3207 7.75284 59.7739 5 57.7851L10.2029 47.5098C12.4051 49.1119 14.9653 50.3825 17.8833 51.3216C20.8013 52.2608 23.7469 52.7303 26.7199 52.7303C30.0784 52.7303 32.7211 52.0674 34.6481 50.7416C36.5751 49.4157 37.5386 47.5927 37.5386 45.2725C37.5386 43.0627 36.6852 41.3226 34.9785 40.052C33.2717 38.7814 30.5189 38.1461 26.7199 38.1461H20.6086V29.2795L36.7127 10.9663L38.1993 15.7725H7.89048V5H48.3573V13.7008L32.3357 32.014L25.5637 28.1194H29.4452C36.5476 28.1194 41.9156 29.7214 45.5494 32.9256C49.1831 36.1297 51 40.2453 51 45.2725C51 48.5318 50.1466 51.5979 48.4399 54.4705C46.7331 57.2879 44.1179 59.5805 40.5943 61.3483C37.0706 63.1161 32.556 64 27.0503 64Z" fill="#9CFF00"/>
</g>
<defs>
<filter id="filter0_d_787_1534" x="0" y="0" width="56" height="69" filterUnits="userSpaceOnUse" color-interpolation-filters="sRGB">
<feFlood flood-opacity="0" result="BackgroundImageFix"/>
<feColorMatrix in="SourceAlpha" type="matrix" values="0 0 0 0 0 0 0 0 0 0 0 0 0 0 0 0 0 0 127 0" result="hardAlpha"/>
<feOffset/>
<feGaussianBlur stdDeviation="2.5"/>
<feComposite in2="hardAlpha" operator="out"/>
<feColorMatrix type="matrix" values="0 0 0 0 0.611765 0 0 0 0 1 0 0 0 0 0 0 0 0 1 0"/>
<feBlend mode="normal" in2="BackgroundImageFix" result="effect1_dropShadow_787_1534"/>
<feBlend mode="normal" in="SourceGraphic" in2="effect1_dropShadow_787_1534" result="shape"/>
</filter>
</defs>
</svg>
