<svg width="52" height="64" viewBox="0 0 52 64" fill="none" xmlns="http://www.w3.org/2000/svg">
<g filter="url(#filter0_d_787_1536)">
<path d="M25.0538 60C21.2162 60 17.405 59.5019 13.6201 58.5056C9.88769 57.4569 6.681 55.9888 4 54.1011L9.04659 44.3483C11.1493 45.8689 13.5675 47.0749 16.3011 47.9663C19.0872 48.8577 21.8996 49.3034 24.7384 49.3034C27.945 49.3034 30.4683 48.6742 32.3082 47.4157C34.1481 46.1573 35.0681 44.4008 35.0681 42.1461C35.0681 40.7303 34.7001 39.4719 33.9642 38.3708C33.2282 37.2697 31.914 36.4307 30.0215 35.8539C28.1816 35.2772 25.5795 34.9888 22.2151 34.9888H8.10036L10.9391 4H44.6093V14.2247H15.5125L22.1362 8.40449L20.1649 30.5056L13.5412 24.6854H25.2115C30.6786 24.6854 35.0681 25.4457 38.3799 26.9663C41.7443 28.4345 44.1888 30.4532 45.7133 33.0225C47.2378 35.5918 48 38.5019 48 41.7528C48 45.0037 47.1852 48.0187 45.5556 50.7978C43.9259 53.5243 41.4026 55.7528 37.9857 57.4831C34.6213 59.161 30.3106 60 25.0538 60Z" fill="#9CFF00"/>
</g>
<defs>
<filter id="filter0_d_787_1536" x="0" y="0" width="52" height="64" filterUnits="userSpaceOnUse" color-interpolation-filters="sRGB">
<feFlood flood-opacity="0" result="BackgroundImageFix"/>
<feColorMatrix in="SourceAlpha" type="matrix" values="0 0 0 0 0 0 0 0 0 0 0 0 0 0 0 0 0 0 127 0" result="hardAlpha"/>
<feOffset/>
<feGaussianBlur stdDeviation="2"/>
<feComposite in2="hardAlpha" operator="out"/>
<feColorMatrix type="matrix" values="0 0 0 0 0.611765 0 0 0 0 1 0 0 0 0 0 0 0 0 1 0"/>
<feBlend mode="normal" in2="BackgroundImageFix" result="effect1_dropShadow_787_1536"/>
<feBlend mode="normal" in="SourceGraphic" in2="effect1_dropShadow_787_1536" result="shape"/>
</filter>
</defs>
</svg>
