<svg width="616" height="141" viewBox="0 0 616 141" fill="none" xmlns="http://www.w3.org/2000/svg">
<g opacity="0.1">
<path d="M18.9476 67.6121V124.677H27.1862C27.9132 124.677 28.3574 124.556 28.519 124.314C28.7613 123.99 28.8824 123.506 28.8824 122.86V69.3083C28.8824 68.1775 28.3574 67.6121 27.3074 67.6121H18.9476ZM46.329 126.494C46.329 131.341 45.3194 134.814 43.3001 136.914C41.2808 139.014 37.7269 140.064 32.6383 140.064H1.50098V52.2252H35.9095C39.3827 52.2252 41.9674 53.1945 43.6636 55.133C45.4406 57.0715 46.329 59.6562 46.329 62.887V126.494Z" fill="white"/>
<path d="M72.2188 67.6121C71.1687 67.6121 70.6437 68.1775 70.6437 69.3083V122.86C70.6437 123.506 70.7245 123.99 70.886 124.314C71.1283 124.556 71.613 124.677 72.3399 124.677H79.0035C79.7305 124.677 80.1747 124.556 80.3363 124.314C80.5786 123.99 80.6997 123.506 80.6997 122.86V69.3083C80.6997 68.1775 80.1747 67.6121 79.1247 67.6121H72.2188ZM98.5098 127.585C98.5098 129.281 98.3079 130.896 97.904 132.431C97.5002 133.885 96.8136 135.177 95.8444 136.308C94.8751 137.439 93.5828 138.368 91.9673 139.095C90.3519 139.741 88.3326 140.064 85.9095 140.064H65.5551C63.132 140.064 61.1127 139.741 59.4973 139.095C57.8819 138.368 56.5895 137.439 55.6203 136.308C54.651 135.177 53.9644 133.885 53.5606 132.431C53.1567 130.896 52.9548 129.281 52.9548 127.585V63.614C52.9548 60.1408 53.8837 57.3946 55.7414 55.3753C57.6799 53.2752 60.7089 52.2252 64.8282 52.2252H86.6364C90.7558 52.2252 93.7443 53.2752 95.6021 55.3753C97.5406 57.3946 98.5098 60.1408 98.5098 63.614V127.585Z" fill="white"/>
<path d="M158.791 52.2252H176.722L162.91 140.064H146.918L139.648 94.2667L132.5 140.064H116.507L102.695 52.2252H120.627L126.2 103.353L133.348 52.2252H146.07L153.097 103.353L158.791 52.2252Z" fill="white"/>
<path d="M180.946 52.2252H197.665L206.631 87.4819V52.2252H224.683V140.064H206.631L197.181 103.353V140.064H180.946V52.2252Z" fill="white"/>
<path d="M231.335 52.2252H249.387V123.708H267.076L264.047 140.064H231.335V52.2252Z" fill="white"/>
<path d="M291.167 67.6121C290.117 67.6121 289.592 68.1775 289.592 69.3083V122.86C289.592 123.506 289.673 123.99 289.835 124.314C290.077 124.556 290.562 124.677 291.288 124.677H297.952C298.679 124.677 299.123 124.556 299.285 124.314C299.527 123.99 299.648 123.506 299.648 122.86V69.3083C299.648 68.1775 299.123 67.6121 298.073 67.6121H291.167ZM317.458 127.585C317.458 129.281 317.256 130.896 316.853 132.431C316.449 133.885 315.762 135.177 314.793 136.308C313.824 137.439 312.531 138.368 310.916 139.095C309.3 139.741 307.281 140.064 304.858 140.064H284.504C282.081 140.064 280.061 139.741 278.446 139.095C276.83 138.368 275.538 137.439 274.569 136.308C273.6 135.177 272.913 133.885 272.509 132.431C272.105 130.896 271.903 129.281 271.903 127.585V63.614C271.903 60.1408 272.832 57.3946 274.69 55.3753C276.628 53.2752 279.657 52.2252 283.777 52.2252H305.585C309.704 52.2252 312.693 53.2752 314.551 55.3753C316.489 57.3946 317.458 60.1408 317.458 63.614V127.585Z" fill="white"/>
<path d="M340.08 129.16L338.505 140.064H320.816L336.687 52.2252H355.467L371.338 140.064H353.649L352.074 129.16H340.08ZM342.018 115.227H350.136L346.138 84.0895L342.018 115.227Z" fill="white"/>
<path d="M392.968 67.6121V124.677H401.206C401.933 124.677 402.377 124.556 402.539 124.314C402.781 123.99 402.902 123.506 402.902 122.86V69.3083C402.902 68.1775 402.377 67.6121 401.327 67.6121H392.968ZM420.349 126.494C420.349 131.341 419.339 134.814 417.32 136.914C415.301 139.014 411.747 140.064 406.658 140.064H375.521V52.2252H409.93C413.403 52.2252 415.987 53.1945 417.684 55.133C419.461 57.0715 420.349 59.6562 420.349 62.887V126.494Z" fill="white"/>
<path d="M441.514 52.2252H458.233L467.199 87.4819V52.2252H485.251V140.064H467.199L457.749 103.353V140.064H441.514V52.2252Z" fill="white"/>
<path d="M511.167 67.6121C510.117 67.6121 509.591 68.1775 509.591 69.3083V122.86C509.591 123.506 509.672 123.99 509.834 124.314C510.076 124.556 510.561 124.677 511.288 124.677H517.951C518.678 124.677 519.122 124.556 519.284 124.314C519.526 123.99 519.647 123.506 519.647 122.86V69.3083C519.647 68.1775 519.122 67.6121 518.072 67.6121H511.167ZM537.458 127.585C537.458 129.281 537.256 130.896 536.852 132.431C536.448 133.885 535.761 135.177 534.792 136.308C533.823 137.439 532.53 138.368 530.915 139.095C529.3 139.741 527.28 140.064 524.857 140.064H504.503C502.08 140.064 500.06 139.741 498.445 139.095C496.83 138.368 495.537 137.439 494.568 136.308C493.599 135.177 492.912 133.885 492.508 132.431C492.105 130.896 491.903 129.281 491.903 127.585V63.614C491.903 60.1408 492.831 57.3946 494.689 55.3753C496.628 53.2752 499.657 52.2252 503.776 52.2252H525.584C529.704 52.2252 532.692 53.2752 534.55 55.3753C536.488 57.3946 537.458 60.1408 537.458 63.614V127.585Z" fill="white"/>
<path d="M597.739 52.2252H615.67L601.858 140.064H585.865L578.596 94.2667L571.448 140.064H555.455L541.643 52.2252H559.574L565.148 103.353L572.296 52.2252H585.017L592.044 103.353L597.739 52.2252Z" fill="white"/>
</g>
<g opacity="0.3">
<path d="M18.9476 43.5811V100.646H27.1862C27.9132 100.646 28.3574 100.525 28.519 100.283C28.7613 99.9594 28.8824 99.4748 28.8824 98.8286V45.2773C28.8824 44.1465 28.3574 43.5811 27.3074 43.5811H18.9476ZM46.329 102.463C46.329 107.31 45.3194 110.783 43.3001 112.883C41.2808 114.983 37.7269 116.033 32.6383 116.033H1.50098V28.1942H35.9095C39.3827 28.1942 41.9674 29.1634 43.6636 31.1019C45.4406 33.0404 46.329 35.6251 46.329 38.856V102.463Z" fill="white"/>
<path d="M72.2188 43.5811C71.1687 43.5811 70.6437 44.1465 70.6437 45.2773V98.8286C70.6437 99.4748 70.7245 99.9594 70.886 100.283C71.1283 100.525 71.613 100.646 72.3399 100.646H79.0035C79.7305 100.646 80.1747 100.525 80.3363 100.283C80.5786 99.9594 80.6997 99.4748 80.6997 98.8286V45.2773C80.6997 44.1465 80.1747 43.5811 79.1247 43.5811H72.2188ZM98.5098 103.554C98.5098 105.25 98.3079 106.865 97.904 108.4C97.5002 109.854 96.8136 111.146 95.8444 112.277C94.8751 113.408 93.5828 114.337 91.9673 115.064C90.3519 115.71 88.3326 116.033 85.9095 116.033H65.5551C63.132 116.033 61.1127 115.71 59.4973 115.064C57.8819 114.337 56.5895 113.408 55.6203 112.277C54.651 111.146 53.9644 109.854 53.5606 108.4C53.1567 106.865 52.9548 105.25 52.9548 103.554V39.5829C52.9548 36.1097 53.8837 33.3635 55.7414 31.3442C57.6799 29.2442 60.7089 28.1942 64.8282 28.1942H86.6364C90.7558 28.1942 93.7443 29.2442 95.6021 31.3442C97.5406 33.3635 98.5098 36.1097 98.5098 39.5829V103.554Z" fill="white"/>
<path d="M158.791 28.1942H176.722L162.91 116.033H146.918L139.648 70.2356L132.5 116.033H116.507L102.695 28.1942H120.627L126.2 79.3224L133.348 28.1942H146.07L153.097 79.3224L158.791 28.1942Z" fill="white"/>
<path d="M180.946 28.1942H197.665L206.631 63.4508V28.1942H224.683V116.033H206.631L197.181 79.3224V116.033H180.946V28.1942Z" fill="white"/>
<path d="M231.335 28.1942H249.387V99.6767H267.076L264.047 116.033H231.335V28.1942Z" fill="white"/>
<path d="M291.167 43.5811C290.117 43.5811 289.592 44.1465 289.592 45.2773V98.8286C289.592 99.4748 289.673 99.9594 289.835 100.283C290.077 100.525 290.562 100.646 291.288 100.646H297.952C298.679 100.646 299.123 100.525 299.285 100.283C299.527 99.9594 299.648 99.4748 299.648 98.8286V45.2773C299.648 44.1465 299.123 43.5811 298.073 43.5811H291.167ZM317.458 103.554C317.458 105.25 317.256 106.865 316.853 108.4C316.449 109.854 315.762 111.146 314.793 112.277C313.824 113.408 312.531 114.337 310.916 115.064C309.3 115.71 307.281 116.033 304.858 116.033H284.504C282.081 116.033 280.061 115.71 278.446 115.064C276.83 114.337 275.538 113.408 274.569 112.277C273.6 111.146 272.913 109.854 272.509 108.4C272.105 106.865 271.903 105.25 271.903 103.554V39.5829C271.903 36.1097 272.832 33.3635 274.69 31.3442C276.628 29.2442 279.657 28.1942 283.777 28.1942H305.585C309.704 28.1942 312.693 29.2442 314.551 31.3442C316.489 33.3635 317.458 36.1097 317.458 39.5829V103.554Z" fill="white"/>
<path d="M340.08 105.129L338.505 116.033H320.816L336.687 28.1942H355.467L371.338 116.033H353.649L352.074 105.129H340.08ZM342.018 91.1957H350.136L346.138 60.0584L342.018 91.1957Z" fill="white"/>
<path d="M392.968 43.5811V100.646H401.206C401.933 100.646 402.377 100.525 402.539 100.283C402.781 99.9594 402.902 99.4748 402.902 98.8286V45.2773C402.902 44.1465 402.377 43.5811 401.327 43.5811H392.968ZM420.349 102.463C420.349 107.31 419.339 110.783 417.32 112.883C415.301 114.983 411.747 116.033 406.658 116.033H375.521V28.1942H409.93C413.403 28.1942 415.987 29.1634 417.684 31.1019C419.461 33.0404 420.349 35.6251 420.349 38.856V102.463Z" fill="white"/>
<path d="M441.514 28.1942H458.233L467.199 63.4508V28.1942H485.251V116.033H467.199L457.749 79.3224V116.033H441.514V28.1942Z" fill="white"/>
<path d="M511.167 43.5811C510.117 43.5811 509.591 44.1465 509.591 45.2773V98.8286C509.591 99.4748 509.672 99.9594 509.834 100.283C510.076 100.525 510.561 100.646 511.288 100.646H517.951C518.678 100.646 519.122 100.525 519.284 100.283C519.526 99.9594 519.647 99.4748 519.647 98.8286V45.2773C519.647 44.1465 519.122 43.5811 518.072 43.5811H511.167ZM537.458 103.554C537.458 105.25 537.256 106.865 536.852 108.4C536.448 109.854 535.761 111.146 534.792 112.277C533.823 113.408 532.53 114.337 530.915 115.064C529.3 115.71 527.28 116.033 524.857 116.033H504.503C502.08 116.033 500.06 115.71 498.445 115.064C496.83 114.337 495.537 113.408 494.568 112.277C493.599 111.146 492.912 109.854 492.508 108.4C492.105 106.865 491.903 105.25 491.903 103.554V39.5829C491.903 36.1097 492.831 33.3635 494.689 31.3442C496.628 29.2442 499.657 28.1942 503.776 28.1942H525.584C529.704 28.1942 532.692 29.2442 534.55 31.3442C536.488 33.3635 537.458 36.1097 537.458 39.5829V103.554Z" fill="white"/>
<path d="M597.739 28.1942H615.67L601.858 116.033H585.865L578.596 70.2356L571.448 116.033H555.455L541.643 28.1942H559.574L565.148 79.3224L572.296 28.1942H585.017L592.044 79.3224L597.739 28.1942Z" fill="white"/>
</g>
<path d="M17.9466 15.5448V72.6097H26.1853C26.9122 72.6097 27.3565 72.4885 27.518 72.2462C27.7603 71.9231 27.8815 71.4385 27.8815 70.7923V17.241C27.8815 16.1102 27.3565 15.5448 26.3064 15.5448H17.9466ZM45.3281 74.427C45.3281 79.2733 44.3184 82.7465 42.2991 84.8465C40.2799 86.9466 36.7259 87.9966 31.6373 87.9966H0.5V0.157837H34.9086C38.3817 0.157837 40.9664 1.12709 42.6626 3.0656C44.4396 5.00411 45.3281 7.58879 45.3281 10.8196V74.427Z" fill="white"/>
<path d="M71.2178 15.5448C70.1678 15.5448 69.6427 16.1102 69.6427 17.241V70.7923C69.6427 71.4385 69.7235 71.9231 69.8851 72.2462C70.1274 72.4885 70.612 72.6097 71.3389 72.6097H78.0026C78.7295 72.6097 79.1738 72.4885 79.3353 72.2462C79.5776 71.9231 79.6988 71.4385 79.6988 70.7923V17.241C79.6988 16.1102 79.1738 15.5448 78.1237 15.5448H71.2178ZM97.5088 75.5174C97.5088 77.2136 97.3069 78.8291 96.9031 80.3637C96.4992 81.8176 95.8126 83.1099 94.8434 84.2407C93.8741 85.3715 92.5818 86.3004 90.9664 87.0273C89.3509 87.6735 87.3317 87.9966 84.9085 87.9966H64.5542C62.131 87.9966 60.1117 87.6735 58.4963 87.0273C56.8809 86.3004 55.5885 85.3715 54.6193 84.2407C53.65 83.1099 52.9635 81.8176 52.5596 80.3637C52.1558 78.8291 51.9538 77.2136 51.9538 75.5174V11.5466C51.9538 8.07342 52.8827 5.3272 54.7404 3.30791C56.679 1.20786 59.7079 0.157837 63.8272 0.157837H85.6355C89.7548 0.157837 92.7433 1.20786 94.6011 3.30791C96.5396 5.3272 97.5088 8.07342 97.5088 11.5466V75.5174Z" fill="white"/>
<path d="M157.79 0.157837H175.721L161.909 87.9966H145.917L138.647 42.1993L131.499 87.9966H115.506L101.694 0.157837H119.626L125.199 51.2861L132.347 0.157837H145.069L152.096 51.2861L157.79 0.157837Z" fill="white"/>
<path d="M179.945 0.157837H196.664L205.63 35.4145V0.157837H223.682V87.9966H205.63L196.18 51.2861V87.9966H179.945V0.157837Z" fill="white"/>
<path d="M230.334 0.157837H248.386V71.6404H266.075L263.046 87.9966H230.334V0.157837Z" fill="white"/>
<path d="M290.166 15.5448C289.116 15.5448 288.591 16.1102 288.591 17.241V70.7923C288.591 71.4385 288.672 71.9231 288.834 72.2462C289.076 72.4885 289.561 72.6097 290.288 72.6097H296.951C297.678 72.6097 298.122 72.4885 298.284 72.2462C298.526 71.9231 298.647 71.4385 298.647 70.7923V17.241C298.647 16.1102 298.122 15.5448 297.072 15.5448H290.166ZM316.457 75.5174C316.457 77.2136 316.255 78.8291 315.852 80.3637C315.448 81.8176 314.761 83.1099 313.792 84.2407C312.823 85.3715 311.53 86.3004 309.915 87.0273C308.299 87.6735 306.28 87.9966 303.857 87.9966H283.503C281.08 87.9966 279.06 87.6735 277.445 87.0273C275.829 86.3004 274.537 85.3715 273.568 84.2407C272.599 83.1099 271.912 81.8176 271.508 80.3637C271.104 78.8291 270.902 77.2136 270.902 75.5174V11.5466C270.902 8.07342 271.831 5.3272 273.689 3.30791C275.627 1.20786 278.656 0.157837 282.776 0.157837H304.584C308.703 0.157837 311.692 1.20786 313.55 3.30791C315.488 5.3272 316.457 8.07342 316.457 11.5466V75.5174Z" fill="white"/>
<path d="M339.079 77.0925L337.504 87.9966H319.815L335.686 0.157837H354.466L370.337 87.9966H352.648L351.073 77.0925H339.079ZM341.017 63.1594H349.135L345.137 32.0221L341.017 63.1594Z" fill="white"/>
<path d="M391.967 15.5448V72.6097H400.205C400.932 72.6097 401.376 72.4885 401.538 72.2462C401.78 71.9231 401.901 71.4385 401.901 70.7923V17.241C401.901 16.1102 401.376 15.5448 400.326 15.5448H391.967ZM419.348 74.427C419.348 79.2733 418.338 82.7465 416.319 84.8465C414.3 86.9466 410.746 87.9966 405.657 87.9966H374.52V0.157837H408.929C412.402 0.157837 414.986 1.12709 416.683 3.0656C418.46 5.00411 419.348 7.58879 419.348 10.8196V74.427Z" fill="white"/>
<path d="M440.513 0.157837H457.232L466.198 35.4145V0.157837H484.25V87.9966H466.198L456.748 51.2861V87.9966H440.513V0.157837Z" fill="white"/>
<path d="M510.166 15.5448C509.116 15.5448 508.591 16.1102 508.591 17.241V70.7923C508.591 71.4385 508.671 71.9231 508.833 72.2462C509.075 72.4885 509.56 72.6097 510.287 72.6097H516.95C517.677 72.6097 518.122 72.4885 518.283 72.2462C518.525 71.9231 518.647 71.4385 518.647 70.7923V17.241C518.647 16.1102 518.121 15.5448 517.071 15.5448H510.166ZM536.457 75.5174C536.457 77.2136 536.255 78.8291 535.851 80.3637C535.447 81.8176 534.76 83.1099 533.791 84.2407C532.822 85.3715 531.53 86.3004 529.914 87.0273C528.299 87.6735 526.279 87.9966 523.856 87.9966H503.502C501.079 87.9966 499.059 87.6735 497.444 87.0273C495.829 86.3004 494.536 85.3715 493.567 84.2407C492.598 83.1099 491.911 81.8176 491.507 80.3637C491.104 78.8291 490.902 77.2136 490.902 75.5174V11.5466C490.902 8.07342 491.83 5.3272 493.688 3.30791C495.627 1.20786 498.656 0.157837 502.775 0.157837H524.583C528.703 0.157837 531.691 1.20786 533.549 3.30791C535.487 5.3272 536.457 8.07342 536.457 11.5466V75.5174Z" fill="white"/>
<path d="M596.738 0.157837H614.669L600.857 87.9966H584.864L577.595 42.1993L570.447 87.9966H554.454L540.642 0.157837H558.573L564.147 51.2861L571.295 0.157837H584.016L591.043 51.2861L596.738 0.157837Z" fill="white"/>
</svg>
