<svg width="54" height="32" viewBox="0 0 54 32" fill="none" xmlns="http://www.w3.org/2000/svg">
<path d="M40.3352 10.5486L44.8061 2.82178C45.1948 2.06853 44.9033 1.1452 44.1743 0.756425C43.4697 0.39195 42.5949 0.610636 42.1575 1.29099L37.5895 9.16364C30.6402 6.22354 22.8161 6.22354 15.8668 9.16364L11.2987 1.29099C10.837 0.586338 9.88941 0.367652 9.18476 0.805021C8.5044 1.24239 8.28572 2.11713 8.65019 2.82178L13.1211 10.5486C5.58861 14.8494 0.680352 22.6006 0 31.2508H53.4563C52.7759 22.6006 47.8676 14.8494 40.3352 10.5486ZM14.579 24.5688C12.9024 24.5688 11.5417 23.2081 11.5417 21.5315C11.5417 19.8549 12.9024 18.4942 14.579 18.4942C16.2556 18.4942 17.6163 19.8549 17.6163 21.5315C17.6163 23.2081 16.2556 24.5688 14.579 24.5688ZM38.8773 24.5688C37.2007 24.5688 35.84 23.2081 35.84 21.5315C35.84 19.8549 37.2007 18.4942 38.8773 18.4942C40.5539 18.4942 41.9146 19.8549 41.9146 21.5315C41.9146 23.2081 40.5539 24.5688 38.8773 24.5688Z" fill="#9CFF00"/>
</svg>
