<svg width="213" height="115" viewBox="0 0 213 115" fill="none" xmlns="http://www.w3.org/2000/svg">
<rect y="0.99646" width="212.144" height="113.889" rx="7" fill="#9CFF00"/>
<path d="M119.335 17.969L123.806 10.2422C124.195 9.48894 123.903 8.56561 123.174 8.17684C122.47 7.81236 121.595 8.03105 121.158 8.7114L116.589 16.584C109.64 13.644 101.816 13.644 94.8668 16.584L90.2987 8.7114C89.837 8.00675 88.8894 7.78806 88.1848 8.22543C87.5044 8.6628 87.2857 9.53754 87.6502 10.2422L92.1211 17.969C84.5886 22.2698 79.6804 30.021 79 38.6712H132.456C131.776 30.021 126.868 22.2698 119.335 17.969ZM93.579 31.9892C91.9024 31.9892 90.5417 30.6285 90.5417 28.9519C90.5417 27.2753 91.9024 25.9146 93.579 25.9146C95.2556 25.9146 96.6163 27.2753 96.6163 28.9519C96.6163 30.6285 95.2556 31.9892 93.579 31.9892ZM117.877 31.9892C116.201 31.9892 114.84 30.6285 114.84 28.9519C114.84 27.2753 116.201 25.9146 117.877 25.9146C119.554 25.9146 120.915 27.2753 120.915 28.9519C120.915 30.6285 119.554 31.9892 117.877 31.9892Z" fill="black"/>
<path d="M63.8955 71.3751H68.4835L60.7025 49.7061H55.6495L47.8685 71.3751H52.4255L53.8515 67.2521H62.4695L63.8955 71.3751ZM61.2915 63.7801H55.0295L58.1605 54.7281L61.2915 63.7801ZM82.0249 71.3751H86.3649V61.3001C86.3649 56.5571 83.5129 53.9531 79.5139 53.9531C77.3129 53.9531 75.4529 54.8831 74.3369 56.3401V54.2011H69.9969V71.3751H74.3369V61.8891C74.3369 59.1301 75.8559 57.6421 78.2119 57.6421C80.5059 57.6421 82.0249 59.1301 82.0249 61.8891V71.3751ZM87.9811 62.7261C87.9811 68.0891 91.4531 71.6541 95.8241 71.6541C98.5211 71.6541 100.443 70.4141 101.466 68.8331V71.3751H105.868V48.4351H101.466V56.5881C100.288 54.9761 98.1181 53.9221 95.8551 53.9221C91.4531 53.9221 87.9811 57.3631 87.9811 62.7261ZM101.497 62.7881C101.497 66.0431 99.3271 67.8411 96.9401 67.8411C94.6151 67.8411 92.4141 65.9811 92.4141 62.7261C92.4141 59.4711 94.6151 57.7351 96.9401 57.7351C99.3271 57.7351 101.497 59.5331 101.497 62.7881ZM113.052 62.8191C113.052 59.5021 114.602 58.5101 117.175 58.5101H118.322V53.9531C115.935 53.9531 114.137 55.1001 113.052 56.8671V54.2011H108.712V71.3751H113.052V62.8191ZM136.435 62.7881C136.435 57.3631 132.56 53.9221 127.6 53.9221C122.64 53.9221 118.765 57.3631 118.765 62.7881C118.765 68.1821 122.516 71.6541 127.476 71.6541C132.467 71.6541 136.435 68.1821 136.435 62.7881ZM123.167 62.7881C123.167 59.3471 125.244 57.7041 127.538 57.7041C129.832 57.7041 131.971 59.3471 131.971 62.7881C131.971 66.1981 129.77 67.8721 127.476 67.8721C125.151 67.8721 123.167 66.1981 123.167 62.7881ZM138.224 71.3751H142.564V54.2011H138.224V71.3751ZM140.425 52.1551C141.944 52.1551 143.091 51.0391 143.091 49.6131C143.091 48.1871 141.944 47.0711 140.425 47.0711C138.875 47.0711 137.759 48.1871 137.759 49.6131C137.759 51.0391 138.875 52.1551 140.425 52.1551ZM144.341 62.7261C144.341 68.0891 147.813 71.6541 152.184 71.6541C154.881 71.6541 156.803 70.4141 157.826 68.8331V71.3751H162.228V48.4351H157.826V56.5881C156.648 54.9761 154.478 53.9221 152.215 53.9221C147.813 53.9221 144.341 57.3631 144.341 62.7261ZM157.857 62.7881C157.857 66.0431 155.687 67.8411 153.3 67.8411C150.975 67.8411 148.774 65.9811 148.774 62.7261C148.774 59.4711 150.975 57.7351 153.3 57.7351C155.687 57.7351 157.857 59.5331 157.857 62.7881ZM81.8284 90.5641V84.2711H85.2694C87.7184 84.2711 88.8034 85.4491 88.8034 87.4331C88.8034 89.3551 87.7184 90.5641 85.2694 90.5641H81.8284ZM93.2674 87.4331C93.2674 83.6821 90.6634 80.7371 85.4554 80.7371H77.4884V102.375H81.8284V94.0671H85.4554C91.0354 94.0671 93.2674 90.7191 93.2674 87.4331ZM94.9538 102.375H99.2938V79.4351H94.9538V102.375ZM118.4 85.2011H114.029V94.6561C114.029 97.4151 112.541 98.9031 110.185 98.9031C107.891 98.9031 106.372 97.4151 106.372 94.6561V85.2011H102.032V95.2761C102.032 99.9881 104.915 102.592 108.914 102.592C111.053 102.592 112.944 101.662 114.029 100.205V102.375H118.4V85.2011ZM134.617 97.4771C134.493 91.1841 124.976 93.1371 124.976 90.0061C124.976 89.0141 125.813 88.3631 127.425 88.3631C129.13 88.3631 130.184 89.2621 130.308 90.5951H134.462C134.214 87.1851 131.703 84.9221 127.549 84.9221C123.302 84.9221 120.76 87.2161 120.76 90.0681C120.76 96.3611 130.463 94.4081 130.463 97.4771C130.463 98.4691 129.533 99.2441 127.828 99.2441C126.092 99.2441 124.883 98.2521 124.728 96.9501H120.357C120.543 100.143 123.55 102.654 127.859 102.654C132.044 102.654 134.617 100.422 134.617 97.4771Z" fill="black"/>
</svg>
