<svg width="54" height="31" viewBox="0 0 54 31" fill="none" xmlns="http://www.w3.org/2000/svg">
<path d="M40.3352 9.96905L44.8061 2.24219C45.1948 1.48894 44.9033 0.565608 44.1743 0.176835C43.4697 -0.187639 42.5949 0.0310459 42.1575 0.711398L37.5895 8.58405C30.6402 5.64395 22.8161 5.64395 15.8668 8.58405L11.2987 0.711398C10.837 0.00674766 9.88941 -0.211938 9.18476 0.225432C8.5044 0.662801 8.28572 1.53754 8.65019 2.24219L13.1211 9.96905C5.58861 14.2698 0.680352 22.021 0 30.6712H53.4563C52.7759 22.021 47.8676 14.2698 40.3352 9.96905ZM14.579 23.9892C12.9024 23.9892 11.5417 22.6285 11.5417 20.9519C11.5417 19.2753 12.9024 17.9146 14.579 17.9146C16.2556 17.9146 17.6163 19.2753 17.6163 20.9519C17.6163 22.6285 16.2556 23.9892 14.579 23.9892ZM38.8773 23.9892C37.2007 23.9892 35.84 22.6285 35.84 20.9519C35.84 19.2753 37.2007 17.9146 38.8773 17.9146C40.5539 17.9146 41.9146 19.2753 41.9146 20.9519C41.9146 22.6285 40.5539 23.9892 38.8773 23.9892Z" fill="black"/>
</svg>
