<svg width="132" height="36" viewBox="0 0 132 36" fill="none" xmlns="http://www.w3.org/2000/svg">
<rect width="132" height="36" rx="7" fill="#9CFF00"/>
<path d="M38.8338 20.02C38.8338 21.36 37.8938 22.14 36.3538 22.14H33.2738V17.8H36.2738C37.7938 17.8 38.8338 18.64 38.8338 20.02ZM38.4738 13.96C38.4738 15.24 37.5738 15.94 36.0938 15.94H33.2738V11.96H36.0938C37.5738 11.96 38.4738 12.7 38.4738 13.96ZM41.1138 20.26C41.1138 18.6 39.9138 17.12 38.4338 16.86C39.7738 16.38 40.7938 15.36 40.7938 13.68C40.7938 11.72 39.2338 10.1 36.2938 10.1H30.9938V24H36.5538C39.3938 24 41.1138 22.38 41.1138 20.26ZM47.3314 14.72C49.0314 14.72 50.3714 15.8 50.4114 17.5H44.3114C44.5514 15.76 45.7914 14.72 47.3314 14.72ZM52.4914 20.72H50.0314C49.6114 21.58 48.8314 22.26 47.4314 22.26C45.7514 22.26 44.4514 21.16 44.2914 19.34H52.7114C52.7714 18.96 52.7914 18.6 52.7914 18.22C52.7914 14.98 50.5714 12.8 47.4314 12.8C44.1714 12.8 41.9314 15.02 41.9314 18.48C41.9314 21.94 44.2714 24.18 47.4314 24.18C50.1314 24.18 51.8714 22.64 52.4914 20.72ZM61.9552 24H64.2152V17.5C64.2152 14.42 62.2752 12.8 59.6952 12.8C58.3752 12.8 57.1552 13.34 56.4152 14.24V12.98H54.1352V24H56.4152V17.84C56.4152 15.82 57.5152 14.78 59.1952 14.78C60.8552 14.78 61.9552 15.82 61.9552 17.84V24ZM70.8634 14.72C72.5634 14.72 73.9034 15.8 73.9434 17.5H67.8434C68.0834 15.76 69.3234 14.72 70.8634 14.72ZM76.0234 20.72H73.5634C73.1434 21.58 72.3634 22.26 70.9634 22.26C69.2834 22.26 67.9834 21.16 67.8234 19.34H76.2434C76.3034 18.96 76.3234 18.6 76.3234 18.22C76.3234 14.98 74.1034 12.8 70.9634 12.8C67.7034 12.8 65.4634 15.02 65.4634 18.48C65.4634 21.94 67.8034 24.18 70.9634 24.18C73.6634 24.18 75.4034 22.64 76.0234 20.72ZM77.9472 24H80.2472V14.84H82.2872V12.98H80.2472V12.2C80.2472 10.94 80.7272 10.46 82.1272 10.46V8.56C79.2472 8.56 77.9472 9.66 77.9472 12.2V12.98H76.6472V14.84H77.9472V24ZM83.4078 24H85.6878V12.98H83.4078V24ZM84.5678 11.52C85.3678 11.52 86.0078 10.88 86.0078 10.06C86.0078 9.24 85.3678 8.6 84.5678 8.6C83.7478 8.6 83.1078 9.24 83.1078 10.06C83.1078 10.88 83.7478 11.52 84.5678 11.52ZM88.1413 20.94C88.1413 23.18 89.3613 24 91.3213 24H93.1213V22.1H91.7213C90.7613 22.1 90.4413 21.76 90.4413 20.94V14.84H93.1213V12.98H90.4413V10.24H88.1413V12.98H86.8413V14.84H88.1413V20.94ZM102.543 20.92C102.423 16.94 96.2027 18.18 96.2027 15.96C96.2027 15.22 96.8427 14.72 98.0627 14.72C99.3027 14.72 100.043 15.38 100.123 16.34H102.403C102.283 14.14 100.643 12.8 98.1427 12.8C95.5427 12.8 93.9027 14.22 93.9027 15.98C93.9027 20.02 100.303 18.78 100.303 20.94C100.303 21.7 99.6027 22.26 98.2827 22.26C97.0227 22.26 96.1627 21.52 96.0827 20.62H93.7227C93.8227 22.62 95.6827 24.18 98.3227 24.18C100.923 24.18 102.543 22.78 102.543 20.92Z" fill="#353535"/>
<rect width="132" height="36" rx="7" fill="#9CFF00"/>
<path d="M38.8338 20.02C38.8338 21.36 37.8938 22.14 36.3538 22.14H33.2738V17.8H36.2738C37.7938 17.8 38.8338 18.64 38.8338 20.02ZM38.4738 13.96C38.4738 15.24 37.5738 15.94 36.0938 15.94H33.2738V11.96H36.0938C37.5738 11.96 38.4738 12.7 38.4738 13.96ZM41.1138 20.26C41.1138 18.6 39.9138 17.12 38.4338 16.86C39.7738 16.38 40.7938 15.36 40.7938 13.68C40.7938 11.72 39.2338 10.1 36.2938 10.1H30.9938V24H36.5538C39.3938 24 41.1138 22.38 41.1138 20.26ZM47.3314 14.72C49.0314 14.72 50.3714 15.8 50.4114 17.5H44.3114C44.5514 15.76 45.7914 14.72 47.3314 14.72ZM52.4914 20.72H50.0314C49.6114 21.58 48.8314 22.26 47.4314 22.26C45.7514 22.26 44.4514 21.16 44.2914 19.34H52.7114C52.7714 18.96 52.7914 18.6 52.7914 18.22C52.7914 14.98 50.5714 12.8 47.4314 12.8C44.1714 12.8 41.9314 15.02 41.9314 18.48C41.9314 21.94 44.2714 24.18 47.4314 24.18C50.1314 24.18 51.8714 22.64 52.4914 20.72ZM61.9552 24H64.2152V17.5C64.2152 14.42 62.2752 12.8 59.6952 12.8C58.3752 12.8 57.1552 13.34 56.4152 14.24V12.98H54.1352V24H56.4152V17.84C56.4152 15.82 57.5152 14.78 59.1952 14.78C60.8552 14.78 61.9552 15.82 61.9552 17.84V24ZM70.8634 14.72C72.5634 14.72 73.9034 15.8 73.9434 17.5H67.8434C68.0834 15.76 69.3234 14.72 70.8634 14.72ZM76.0234 20.72H73.5634C73.1434 21.58 72.3634 22.26 70.9634 22.26C69.2834 22.26 67.9834 21.16 67.8234 19.34H76.2434C76.3034 18.96 76.3234 18.6 76.3234 18.22C76.3234 14.98 74.1034 12.8 70.9634 12.8C67.7034 12.8 65.4634 15.02 65.4634 18.48C65.4634 21.94 67.8034 24.18 70.9634 24.18C73.6634 24.18 75.4034 22.64 76.0234 20.72ZM77.9472 24H80.2472V14.84H82.2872V12.98H80.2472V12.2C80.2472 10.94 80.7272 10.46 82.1272 10.46V8.56C79.2472 8.56 77.9472 9.66 77.9472 12.2V12.98H76.6472V14.84H77.9472V24ZM83.4078 24H85.6878V12.98H83.4078V24ZM84.5678 11.52C85.3678 11.52 86.0078 10.88 86.0078 10.06C86.0078 9.24 85.3678 8.6 84.5678 8.6C83.7478 8.6 83.1078 9.24 83.1078 10.06C83.1078 10.88 83.7478 11.52 84.5678 11.52ZM88.1413 20.94C88.1413 23.18 89.3613 24 91.3213 24H93.1213V22.1H91.7213C90.7613 22.1 90.4413 21.76 90.4413 20.94V14.84H93.1213V12.98H90.4413V10.24H88.1413V12.98H86.8413V14.84H88.1413V20.94ZM102.543 20.92C102.423 16.94 96.2027 18.18 96.2027 15.96C96.2027 15.22 96.8427 14.72 98.0627 14.72C99.3027 14.72 100.043 15.38 100.123 16.34H102.403C102.283 14.14 100.643 12.8 98.1427 12.8C95.5427 12.8 93.9027 14.22 93.9027 15.98C93.9027 20.02 100.303 18.78 100.303 20.94C100.303 21.7 99.6027 22.26 98.2827 22.26C97.0227 22.26 96.1627 21.52 96.0827 20.62H93.7227C93.8227 22.62 95.6827 24.18 98.3227 24.18C100.923 24.18 102.543 22.78 102.543 20.92Z" fill="#353535"/>
</svg>
