<svg width="132" height="36" viewBox="0 0 132 36" fill="none" xmlns="http://www.w3.org/2000/svg">
<rect width="132" height="36" rx="7" fill="#9CFF00"/>
<path d="M24.4041 9.92C20.4841 9.92 17.3041 12.86 17.3041 17.02C17.3041 21.2 20.4841 24.12 24.4041 24.12C28.1441 24.12 30.8641 21.38 31.2841 18.16V16.38H23.6241V18.2H28.8441C28.5041 20.54 26.9241 22.06 24.4041 22.06C21.6441 22.06 19.6441 20.08 19.6441 17.02C19.6441 13.96 21.6441 12 24.4041 12C26.0641 12 27.3841 12.7 28.1241 14.1H30.8641C29.8041 11.38 27.3041 9.92 24.4041 9.92ZM31.8728 18.44C31.8728 21.84 34.1728 24.18 37.0328 24.18C38.8728 24.18 40.1928 23.3 40.8928 22.36V24H43.1928V12.98H40.8928V14.58C40.2128 13.68 38.9328 12.8 37.0728 12.8C34.1728 12.8 31.8728 15.04 31.8728 18.44ZM40.8928 18.48C40.8928 20.86 39.2728 22.2 37.5528 22.2C35.8528 22.2 34.2128 20.82 34.2128 18.44C34.2128 16.06 35.8528 14.78 37.5528 14.78C39.2728 14.78 40.8928 16.12 40.8928 18.48ZM60.9075 24H63.1675V17.5C63.1675 14.42 61.2075 12.8 58.6275 12.8C57.0275 12.8 55.4675 13.64 54.7875 14.98C54.0275 13.54 52.5675 12.8 50.8275 12.8C49.5075 12.8 48.3075 13.34 47.5675 14.24V12.98H45.2875V24H47.5675V17.84C47.5675 15.82 48.6675 14.78 50.3475 14.78C52.0075 14.78 53.1075 15.82 53.1075 17.84V24H55.3675V17.84C55.3675 15.82 56.4675 14.78 58.1475 14.78C59.8075 14.78 60.9075 15.82 60.9075 17.84V24ZM69.8088 14.72C71.5088 14.72 72.8488 15.8 72.8888 17.5H66.7888C67.0288 15.76 68.2688 14.72 69.8088 14.72ZM74.9688 20.72H72.5088C72.0888 21.58 71.3088 22.26 69.9088 22.26C68.2288 22.26 66.9288 21.16 66.7688 19.34H75.1888C75.2488 18.96 75.2688 18.6 75.2688 18.22C75.2688 14.98 73.0488 12.8 69.9088 12.8C66.6488 12.8 64.4088 15.02 64.4088 18.48C64.4088 21.94 66.7488 24.18 69.9088 24.18C72.6088 24.18 74.3488 22.64 74.9688 20.72ZM78.8925 14.6V12.98H76.6125V29.24H78.8925V22.4C79.6125 23.26 80.9125 24.18 82.7325 24.18C85.6325 24.18 87.9125 21.84 87.9125 18.44C87.9125 15.04 85.6325 12.8 82.7325 12.8C80.9325 12.8 79.5925 13.68 78.8925 14.6ZM85.5925 18.44C85.5925 20.82 83.9525 22.2 82.2325 22.2C80.5325 22.2 78.8925 20.86 78.8925 18.48C78.8925 16.12 80.5325 14.78 82.2325 14.78C83.9525 14.78 85.5925 16.06 85.5925 18.44ZM89.2672 24H91.5472V9.2H89.2672V24ZM92.8806 18.44C92.8806 21.84 95.1806 24.18 98.0406 24.18C99.8806 24.18 101.201 23.3 101.901 22.36V24H104.201V12.98H101.901V14.58C101.221 13.68 99.9406 12.8 98.0806 12.8C95.1806 12.8 92.8806 15.04 92.8806 18.44ZM101.901 18.48C101.901 20.86 100.281 22.2 98.5606 22.2C96.8606 22.2 95.2206 20.82 95.2206 18.44C95.2206 16.06 96.8606 14.78 98.5606 14.78C100.281 14.78 101.901 16.12 101.901 18.48ZM110.635 21.38L107.535 12.98H104.995L109.335 23.82L107.095 29.18H109.455L116.215 12.98H113.855L110.635 21.38Z" fill="#353535"/>
<rect width="132" height="36" rx="7" fill="#9CFF00"/>
<path d="M28.1241 14.1C27.7641 13.4067 27.2641 12.8867 26.6241 12.54C25.9841 12.18 25.2441 12 24.4041 12C23.4841 12 22.6641 12.2067 21.9441 12.62C21.2241 13.0333 20.6574 13.62 20.2441 14.38C19.8441 15.14 19.6441 16.02 19.6441 17.02C19.6441 18.02 19.8441 18.9067 20.2441 19.68C20.6574 20.44 21.2241 21.0267 21.9441 21.44C22.6641 21.8533 23.4841 22.06 24.4041 22.06C25.6441 22.06 26.6507 21.7133 27.4241 21.02C28.1974 20.3267 28.6707 19.3867 28.8441 18.2H23.6241V16.38H31.2841V18.16C31.1374 19.24 30.7507 20.2333 30.1241 21.14C29.5107 22.0467 28.7041 22.7733 27.7041 23.32C26.7174 23.8533 25.6174 24.12 24.4041 24.12C23.0974 24.12 21.9041 23.82 20.8241 23.22C19.7441 22.6067 18.8841 21.76 18.2441 20.68C17.6174 19.6 17.3041 18.38 17.3041 17.02C17.3041 15.66 17.6174 14.44 18.2441 13.36C18.8841 12.28 19.7441 11.44 20.8241 10.84C21.9174 10.2267 23.1107 9.92 24.4041 9.92C25.8841 9.92 27.1974 10.2867 28.3441 11.02C29.5041 11.74 30.3441 12.7667 30.8641 14.1H28.1241ZM31.8728 18.44C31.8728 17.3333 32.0995 16.3533 32.5528 15.5C33.0195 14.6467 33.6461 13.9867 34.4328 13.52C35.2328 13.04 36.1128 12.8 37.0728 12.8C37.9395 12.8 38.6928 12.9733 39.3328 13.32C39.9861 13.6533 40.5061 14.0733 40.8928 14.58V12.98H43.1928V24H40.8928V22.36C40.5061 22.88 39.9795 23.3133 39.3128 23.66C38.6461 24.0067 37.8861 24.18 37.0328 24.18C36.0861 24.18 35.2195 23.94 34.4328 23.46C33.6461 22.9667 33.0195 22.2867 32.5528 21.42C32.0995 20.54 31.8728 19.5467 31.8728 18.44ZM40.8928 18.48C40.8928 17.72 40.7328 17.06 40.4128 16.5C40.1061 15.94 39.6995 15.5133 39.1928 15.22C38.6861 14.9267 38.1395 14.78 37.5528 14.78C36.9661 14.78 36.4195 14.9267 35.9128 15.22C35.4061 15.5 34.9928 15.92 34.6728 16.48C34.3661 17.0267 34.2128 17.68 34.2128 18.44C34.2128 19.2 34.3661 19.8667 34.6728 20.44C34.9928 21.0133 35.4061 21.4533 35.9128 21.76C36.4328 22.0533 36.9795 22.2 37.5528 22.2C38.1395 22.2 38.6861 22.0533 39.1928 21.76C39.6995 21.4667 40.1061 21.04 40.4128 20.48C40.7328 19.9067 40.8928 19.24 40.8928 18.48ZM58.6275 12.8C59.4942 12.8 60.2675 12.98 60.9475 13.34C61.6408 13.7 62.1808 14.2333 62.5675 14.94C62.9675 15.6467 63.1675 16.5 63.1675 17.5V24H60.9075V17.84C60.9075 16.8533 60.6608 16.1 60.1675 15.58C59.6742 15.0467 59.0008 14.78 58.1475 14.78C57.2942 14.78 56.6142 15.0467 56.1075 15.58C55.6142 16.1 55.3675 16.8533 55.3675 17.84V24H53.1075V17.84C53.1075 16.8533 52.8608 16.1 52.3675 15.58C51.8742 15.0467 51.2008 14.78 50.3475 14.78C49.4942 14.78 48.8142 15.0467 48.3075 15.58C47.8142 16.1 47.5675 16.8533 47.5675 17.84V24H45.2875V12.98H47.5675V14.24C47.9408 13.7867 48.4142 13.4333 48.9875 13.18C49.5608 12.9267 50.1742 12.8 50.8275 12.8C51.7075 12.8 52.4942 12.9867 53.1875 13.36C53.8808 13.7333 54.4142 14.2733 54.7875 14.98C55.1208 14.3133 55.6408 13.7867 56.3475 13.4C57.0542 13 57.8142 12.8 58.6275 12.8ZM75.2688 18.22C75.2688 18.6333 75.2421 19.0067 75.1888 19.34H66.7688C66.8354 20.22 67.1621 20.9267 67.7488 21.46C68.3354 21.9933 69.0554 22.26 69.9088 22.26C71.1354 22.26 72.0021 21.7467 72.5088 20.72H74.9688C74.6354 21.7333 74.0288 22.5667 73.1488 23.22C72.2821 23.86 71.2021 24.18 69.9088 24.18C68.8554 24.18 67.9088 23.9467 67.0688 23.48C66.2421 23 65.5888 22.3333 65.1088 21.48C64.6421 20.6133 64.4088 19.6133 64.4088 18.48C64.4088 17.3467 64.6354 16.3533 65.0888 15.5C65.5554 14.6333 66.2021 13.9667 67.0288 13.5C67.8688 13.0333 68.8288 12.8 69.9088 12.8C70.9488 12.8 71.8754 13.0267 72.6888 13.48C73.5021 13.9333 74.1354 14.5733 74.5888 15.4C75.0421 16.2133 75.2688 17.1533 75.2688 18.22ZM72.8888 17.5C72.8754 16.66 72.5754 15.9867 71.9888 15.48C71.4021 14.9733 70.6754 14.72 69.8088 14.72C69.0221 14.72 68.3488 14.9733 67.7888 15.48C67.2288 15.9733 66.8954 16.6467 66.7888 17.5H72.8888ZM78.8925 14.6C79.2792 14.0933 79.8058 13.6667 80.4725 13.32C81.1392 12.9733 81.8925 12.8 82.7325 12.8C83.6925 12.8 84.5658 13.04 85.3525 13.52C86.1525 13.9867 86.7792 14.6467 87.2325 15.5C87.6858 16.3533 87.9125 17.3333 87.9125 18.44C87.9125 19.5467 87.6858 20.54 87.2325 21.42C86.7792 22.2867 86.1525 22.9667 85.3525 23.46C84.5658 23.94 83.6925 24.18 82.7325 24.18C81.8925 24.18 81.1458 24.0133 80.4925 23.68C79.8392 23.3333 79.3058 22.9067 78.8925 22.4V29.24H76.6125V12.98H78.8925V14.6ZM85.5925 18.44C85.5925 17.68 85.4325 17.0267 85.1125 16.48C84.8058 15.92 84.3925 15.5 83.8725 15.22C83.3658 14.9267 82.8192 14.78 82.2325 14.78C81.6592 14.78 81.1125 14.9267 80.5925 15.22C80.0858 15.5133 79.6725 15.94 79.3525 16.5C79.0458 17.06 78.8925 17.72 78.8925 18.48C78.8925 19.24 79.0458 19.9067 79.3525 20.48C79.6725 21.04 80.0858 21.4667 80.5925 21.76C81.1125 22.0533 81.6592 22.2 82.2325 22.2C82.8192 22.2 83.3658 22.0533 83.8725 21.76C84.3925 21.4533 84.8058 21.0133 85.1125 20.44C85.4325 19.8667 85.5925 19.2 85.5925 18.44ZM91.5472 9.2V24H89.2672V9.2H91.5472ZM92.8806 18.44C92.8806 17.3333 93.1073 16.3533 93.5606 15.5C94.0273 14.6467 94.654 13.9867 95.4406 13.52C96.2406 13.04 97.1206 12.8 98.0806 12.8C98.9473 12.8 99.7006 12.9733 100.341 13.32C100.994 13.6533 101.514 14.0733 101.901 14.58V12.98H104.201V24H101.901V22.36C101.514 22.88 100.987 23.3133 100.321 23.66C99.654 24.0067 98.894 24.18 98.0406 24.18C97.094 24.18 96.2273 23.94 95.4406 23.46C94.654 22.9667 94.0273 22.2867 93.5606 21.42C93.1073 20.54 92.8806 19.5467 92.8806 18.44ZM101.901 18.48C101.901 17.72 101.741 17.06 101.421 16.5C101.114 15.94 100.707 15.5133 100.201 15.22C99.694 14.9267 99.1473 14.78 98.5606 14.78C97.974 14.78 97.4273 14.9267 96.9206 15.22C96.414 15.5 96.0006 15.92 95.6806 16.48C95.374 17.0267 95.2206 17.68 95.2206 18.44C95.2206 19.2 95.374 19.8667 95.6806 20.44C96.0006 21.0133 96.414 21.4533 96.9206 21.76C97.4406 22.0533 97.9873 22.2 98.5606 22.2C99.1473 22.2 99.694 22.0533 100.201 21.76C100.707 21.4667 101.114 21.04 101.421 20.48C101.741 19.9067 101.901 19.24 101.901 18.48ZM116.215 12.98L109.455 29.18H107.095L109.335 23.82L104.995 12.98H107.535L110.635 21.38L113.855 12.98H116.215Z" fill="#353535"/>
</svg>
