<svg width="132" height="36" viewBox="0 0 132 36" fill="none" xmlns="http://www.w3.org/2000/svg">
<rect width="132" height="36" rx="7" fill="#9CFF00"/>
<path d="M48.1798 24H50.4598V10.1H48.1798V16.06H41.6398V10.1H39.3598V24H41.6398V17.92H48.1798V24ZM63.0613 18.48C63.0613 15.02 60.5813 12.8 57.4413 12.8C54.3013 12.8 51.8213 15.02 51.8213 18.48C51.8213 21.94 54.2013 24.18 57.3413 24.18C60.5013 24.18 63.0613 21.94 63.0613 18.48ZM54.1413 18.48C54.1413 15.98 55.6813 14.78 57.4013 14.78C59.1013 14.78 60.7213 15.98 60.7213 18.48C60.7213 20.98 59.0413 22.2 57.3413 22.2C55.6213 22.2 54.1413 20.98 54.1413 18.48ZM80.0352 24H82.2952V17.5C82.2952 14.42 80.3352 12.8 77.7552 12.8C76.1552 12.8 74.5952 13.64 73.9152 14.98C73.1552 13.54 71.6952 12.8 69.9552 12.8C68.6352 12.8 67.4352 13.34 66.6952 14.24V12.98H64.4152V24H66.6952V17.84C66.6952 15.82 67.7952 14.78 69.4752 14.78C71.1352 14.78 72.2352 15.82 72.2352 17.84V24H74.4952V17.84C74.4952 15.82 75.5952 14.78 77.2752 14.78C78.9352 14.78 80.0352 15.82 80.0352 17.84V24ZM88.9365 14.72C90.6365 14.72 91.9765 15.8 92.0165 17.5H85.9165C86.1565 15.76 87.3965 14.72 88.9365 14.72ZM94.0965 20.72H91.6365C91.2165 21.58 90.4365 22.26 89.0365 22.26C87.3565 22.26 86.0565 21.16 85.8965 19.34H94.3165C94.3765 18.96 94.3965 18.6 94.3965 18.22C94.3965 14.98 92.1765 12.8 89.0365 12.8C85.7765 12.8 83.5365 15.02 83.5365 18.48C83.5365 21.94 85.8765 24.18 89.0365 24.18C91.7365 24.18 93.4765 22.64 94.0965 20.72Z" fill="#353535"/>
<rect width="132" height="36" rx="7" fill="#9CFF00"/>
<path d="M50.4598 10.1V24H48.1798V17.92H41.6398V24H39.3598V10.1H41.6398V16.06H48.1798V10.1H50.4598ZM57.3413 24.18C56.3013 24.18 55.3613 23.9467 54.5213 23.48C53.6813 23 53.0213 22.3333 52.5413 21.48C52.0613 20.6133 51.8213 19.6133 51.8213 18.48C51.8213 17.36 52.068 16.3667 52.5613 15.5C53.0547 14.6333 53.728 13.9667 54.5813 13.5C55.4347 13.0333 56.388 12.8 57.4413 12.8C58.4947 12.8 59.448 13.0333 60.3013 13.5C61.1547 13.9667 61.828 14.6333 62.3213 15.5C62.8147 16.3667 63.0613 17.36 63.0613 18.48C63.0613 19.6 62.808 20.5933 62.3013 21.46C61.7947 22.3267 61.1013 23 60.2213 23.48C59.3547 23.9467 58.3947 24.18 57.3413 24.18ZM57.3413 22.2C57.928 22.2 58.4747 22.06 58.9813 21.78C59.5013 21.5 59.9213 21.08 60.2413 20.52C60.5613 19.96 60.7213 19.28 60.7213 18.48C60.7213 17.68 60.568 17.0067 60.2613 16.46C59.9547 15.9 59.548 15.48 59.0413 15.2C58.5347 14.92 57.988 14.78 57.4013 14.78C56.8147 14.78 56.268 14.92 55.7613 15.2C55.268 15.48 54.8747 15.9 54.5813 16.46C54.288 17.0067 54.1413 17.68 54.1413 18.48C54.1413 19.6667 54.4413 20.5867 55.0413 21.24C55.6547 21.88 56.4213 22.2 57.3413 22.2ZM77.7552 12.8C78.6219 12.8 79.3952 12.98 80.0752 13.34C80.7686 13.7 81.3086 14.2333 81.6952 14.94C82.0952 15.6467 82.2952 16.5 82.2952 17.5V24H80.0352V17.84C80.0352 16.8533 79.7886 16.1 79.2952 15.58C78.8019 15.0467 78.1286 14.78 77.2752 14.78C76.4219 14.78 75.7419 15.0467 75.2352 15.58C74.7419 16.1 74.4952 16.8533 74.4952 17.84V24H72.2352V17.84C72.2352 16.8533 71.9886 16.1 71.4952 15.58C71.0019 15.0467 70.3286 14.78 69.4752 14.78C68.6219 14.78 67.9419 15.0467 67.4352 15.58C66.9419 16.1 66.6952 16.8533 66.6952 17.84V24H64.4152V12.98H66.6952V14.24C67.0686 13.7867 67.5419 13.4333 68.1152 13.18C68.6886 12.9267 69.3019 12.8 69.9552 12.8C70.8352 12.8 71.6219 12.9867 72.3152 13.36C73.0086 13.7333 73.5419 14.2733 73.9152 14.98C74.2486 14.3133 74.7686 13.7867 75.4752 13.4C76.1819 13 76.9419 12.8 77.7552 12.8ZM94.3965 18.22C94.3965 18.6333 94.3698 19.0067 94.3165 19.34H85.8965C85.9632 20.22 86.2898 20.9267 86.8765 21.46C87.4632 21.9933 88.1832 22.26 89.0365 22.26C90.2632 22.26 91.1298 21.7467 91.6365 20.72H94.0965C93.7632 21.7333 93.1565 22.5667 92.2765 23.22C91.4098 23.86 90.3298 24.18 89.0365 24.18C87.9832 24.18 87.0365 23.9467 86.1965 23.48C85.3698 23 84.7165 22.3333 84.2365 21.48C83.7698 20.6133 83.5365 19.6133 83.5365 18.48C83.5365 17.3467 83.7632 16.3533 84.2165 15.5C84.6832 14.6333 85.3298 13.9667 86.1565 13.5C86.9965 13.0333 87.9565 12.8 89.0365 12.8C90.0765 12.8 91.0032 13.0267 91.8165 13.48C92.6298 13.9333 93.2632 14.5733 93.7165 15.4C94.1698 16.2133 94.3965 17.1533 94.3965 18.22ZM92.0165 17.5C92.0032 16.66 91.7032 15.9867 91.1165 15.48C90.5298 14.9733 89.8032 14.72 88.9365 14.72C88.1498 14.72 87.4765 14.9733 86.9165 15.48C86.3565 15.9733 86.0232 16.6467 85.9165 17.5H92.0165Z" fill="#353535"/>
</svg>
