<svg width="132" height="36" viewBox="0 0 132 36" fill="none" xmlns="http://www.w3.org/2000/svg">
<rect width="132" height="36" rx="7" fill="#9CFF00"/>
<path d="M18.8027 22.16H23.5027V24H16.5227V10.1H18.8027V22.16ZM34.6094 18.22C34.6094 18.6333 34.5827 19.0067 34.5294 19.34H26.1094C26.176 20.22 26.5027 20.9267 27.0894 21.46C27.676 21.9933 28.396 22.26 29.2494 22.26C30.476 22.26 31.3427 21.7467 31.8494 20.72H34.3094C33.976 21.7333 33.3694 22.5667 32.4894 23.22C31.6227 23.86 30.5427 24.18 29.2494 24.18C28.196 24.18 27.2494 23.9467 26.4094 23.48C25.5827 23 24.9294 22.3333 24.4494 21.48C23.9827 20.6133 23.7494 19.6133 23.7494 18.48C23.7494 17.3467 23.976 16.3533 24.4294 15.5C24.896 14.6333 25.5427 13.9667 26.3694 13.5C27.2094 13.0333 28.1694 12.8 29.2494 12.8C30.2894 12.8 31.216 13.0267 32.0294 13.48C32.8427 13.9333 33.476 14.5733 33.9294 15.4C34.3827 16.2133 34.6094 17.1533 34.6094 18.22ZM32.2294 17.5C32.216 16.66 31.916 15.9867 31.3294 15.48C30.7427 14.9733 30.016 14.72 29.1494 14.72C28.3627 14.72 27.6894 14.9733 27.1294 15.48C26.5694 15.9733 26.236 16.6467 26.1294 17.5H32.2294ZM35.1931 18.44C35.1931 17.3333 35.4198 16.3533 35.8731 15.5C36.3398 14.6467 36.9665 13.9867 37.7531 13.52C38.5531 13.04 39.4331 12.8 40.3931 12.8C41.2598 12.8 42.0131 12.9733 42.6531 13.32C43.3065 13.6533 43.8265 14.0733 44.2131 14.58V12.98H46.5131V24H44.2131V22.36C43.8265 22.88 43.2998 23.3133 42.6331 23.66C41.9665 24.0067 41.2065 24.18 40.3531 24.18C39.4065 24.18 38.5398 23.94 37.7531 23.46C36.9665 22.9667 36.3398 22.2867 35.8731 21.42C35.4198 20.54 35.1931 19.5467 35.1931 18.44ZM44.2131 18.48C44.2131 17.72 44.0531 17.06 43.7331 16.5C43.4265 15.94 43.0198 15.5133 42.5131 15.22C42.0065 14.9267 41.4598 14.78 40.8731 14.78C40.2865 14.78 39.7398 14.9267 39.2331 15.22C38.7265 15.5 38.3131 15.92 37.9931 16.48C37.6865 17.0267 37.5331 17.68 37.5331 18.44C37.5331 19.2 37.6865 19.8667 37.9931 20.44C38.3131 21.0133 38.7265 21.4533 39.2331 21.76C39.7531 22.0533 40.2998 22.2 40.8731 22.2C41.4598 22.2 42.0065 22.0533 42.5131 21.76C43.0198 21.4667 43.4265 21.04 43.7331 20.48C44.0531 19.9067 44.2131 19.24 44.2131 18.48ZM50.8878 14.58C51.2211 14.02 51.6611 13.5867 52.2078 13.28C52.7678 12.96 53.4278 12.8 54.1878 12.8V15.16H53.6078C52.7145 15.16 52.0345 15.3867 51.5678 15.84C51.1145 16.2933 50.8878 17.08 50.8878 18.2V24H48.6078V12.98H50.8878V14.58ZM60.9436 12.8C61.8103 12.8 62.5836 12.98 63.2636 13.34C63.9569 13.7 64.4969 14.2333 64.8836 14.94C65.2703 15.6467 65.4636 16.5 65.4636 17.5V24H63.2036V17.84C63.2036 16.8533 62.9569 16.1 62.4636 15.58C61.9703 15.0467 61.2969 14.78 60.4436 14.78C59.5903 14.78 58.9103 15.0467 58.4036 15.58C57.9103 16.1 57.6636 16.8533 57.6636 17.84V24H55.3836V12.98H57.6636V14.24C58.0369 13.7867 58.5103 13.4333 59.0836 13.18C59.6703 12.9267 60.2903 12.8 60.9436 12.8ZM86.4072 10.1V24H84.1272V14.48L79.8872 24H78.3072L74.0472 14.48V24H71.7672V10.1H74.2272L79.1072 21L83.9672 10.1H86.4072ZM93.2839 24.18C92.2439 24.18 91.3039 23.9467 90.4639 23.48C89.6239 23 88.9639 22.3333 88.4839 21.48C88.0039 20.6133 87.7639 19.6133 87.7639 18.48C87.7639 17.36 88.0106 16.3667 88.5039 15.5C88.9972 14.6333 89.6706 13.9667 90.5239 13.5C91.3772 13.0333 92.3306 12.8 93.3839 12.8C94.4372 12.8 95.3906 13.0333 96.2439 13.5C97.0972 13.9667 97.7706 14.6333 98.2639 15.5C98.7572 16.3667 99.0039 17.36 99.0039 18.48C99.0039 19.6 98.7506 20.5933 98.2439 21.46C97.7372 22.3267 97.0439 23 96.1639 23.48C95.2972 23.9467 94.3372 24.18 93.2839 24.18ZM93.2839 22.2C93.8706 22.2 94.4172 22.06 94.9239 21.78C95.4439 21.5 95.8639 21.08 96.1839 20.52C96.5039 19.96 96.6639 19.28 96.6639 18.48C96.6639 17.68 96.5106 17.0067 96.2039 16.46C95.8972 15.9 95.4906 15.48 94.9839 15.2C94.4772 14.92 93.9306 14.78 93.3439 14.78C92.7572 14.78 92.2106 14.92 91.7039 15.2C91.2106 15.48 90.8172 15.9 90.5239 16.46C90.2306 17.0067 90.0839 17.68 90.0839 18.48C90.0839 19.6667 90.3839 20.5867 90.9839 21.24C91.5972 21.88 92.3639 22.2 93.2839 22.2ZM102.638 14.58C102.971 14.02 103.411 13.5867 103.958 13.28C104.518 12.96 105.178 12.8 105.938 12.8V15.16H105.358C104.464 15.16 103.784 15.3867 103.318 15.84C102.864 16.2933 102.638 17.08 102.638 18.2V24H100.358V12.98H102.638V14.58ZM117.234 18.22C117.234 18.6333 117.207 19.0067 117.154 19.34H108.734C108.8 20.22 109.127 20.9267 109.714 21.46C110.3 21.9933 111.02 22.26 111.874 22.26C113.1 22.26 113.967 21.7467 114.474 20.72H116.934C116.6 21.7333 115.994 22.5667 115.114 23.22C114.247 23.86 113.167 24.18 111.874 24.18C110.82 24.18 109.874 23.9467 109.034 23.48C108.207 23 107.554 22.3333 107.074 21.48C106.607 20.6133 106.374 19.6133 106.374 18.48C106.374 17.3467 106.6 16.3533 107.054 15.5C107.52 14.6333 108.167 13.9667 108.994 13.5C109.834 13.0333 110.794 12.8 111.874 12.8C112.914 12.8 113.84 13.0267 114.654 13.48C115.467 13.9333 116.1 14.5733 116.554 15.4C117.007 16.2133 117.234 17.1533 117.234 18.22ZM114.854 17.5C114.84 16.66 114.54 15.9867 113.954 15.48C113.367 14.9733 112.64 14.72 111.774 14.72C110.987 14.72 110.314 14.9733 109.754 15.48C109.194 15.9733 108.86 16.6467 108.754 17.5H114.854Z" fill="#353535"/>
<rect width="132" height="36" rx="7" fill="#9CFF00"/>
<path d="M18.8027 22.16H23.5027V24H16.5227V10.1H18.8027V22.16ZM34.6094 18.22C34.6094 18.6333 34.5827 19.0067 34.5294 19.34H26.1094C26.176 20.22 26.5027 20.9267 27.0894 21.46C27.676 21.9933 28.396 22.26 29.2494 22.26C30.476 22.26 31.3427 21.7467 31.8494 20.72H34.3094C33.976 21.7333 33.3694 22.5667 32.4894 23.22C31.6227 23.86 30.5427 24.18 29.2494 24.18C28.196 24.18 27.2494 23.9467 26.4094 23.48C25.5827 23 24.9294 22.3333 24.4494 21.48C23.9827 20.6133 23.7494 19.6133 23.7494 18.48C23.7494 17.3467 23.976 16.3533 24.4294 15.5C24.896 14.6333 25.5427 13.9667 26.3694 13.5C27.2094 13.0333 28.1694 12.8 29.2494 12.8C30.2894 12.8 31.216 13.0267 32.0294 13.48C32.8427 13.9333 33.476 14.5733 33.9294 15.4C34.3827 16.2133 34.6094 17.1533 34.6094 18.22ZM32.2294 17.5C32.216 16.66 31.916 15.9867 31.3294 15.48C30.7427 14.9733 30.016 14.72 29.1494 14.72C28.3627 14.72 27.6894 14.9733 27.1294 15.48C26.5694 15.9733 26.236 16.6467 26.1294 17.5H32.2294ZM35.1931 18.44C35.1931 17.3333 35.4198 16.3533 35.8731 15.5C36.3398 14.6467 36.9665 13.9867 37.7531 13.52C38.5531 13.04 39.4331 12.8 40.3931 12.8C41.2598 12.8 42.0131 12.9733 42.6531 13.32C43.3065 13.6533 43.8265 14.0733 44.2131 14.58V12.98H46.5131V24H44.2131V22.36C43.8265 22.88 43.2998 23.3133 42.6331 23.66C41.9665 24.0067 41.2065 24.18 40.3531 24.18C39.4065 24.18 38.5398 23.94 37.7531 23.46C36.9665 22.9667 36.3398 22.2867 35.8731 21.42C35.4198 20.54 35.1931 19.5467 35.1931 18.44ZM44.2131 18.48C44.2131 17.72 44.0531 17.06 43.7331 16.5C43.4265 15.94 43.0198 15.5133 42.5131 15.22C42.0065 14.9267 41.4598 14.78 40.8731 14.78C40.2865 14.78 39.7398 14.9267 39.2331 15.22C38.7265 15.5 38.3131 15.92 37.9931 16.48C37.6865 17.0267 37.5331 17.68 37.5331 18.44C37.5331 19.2 37.6865 19.8667 37.9931 20.44C38.3131 21.0133 38.7265 21.4533 39.2331 21.76C39.7531 22.0533 40.2998 22.2 40.8731 22.2C41.4598 22.2 42.0065 22.0533 42.5131 21.76C43.0198 21.4667 43.4265 21.04 43.7331 20.48C44.0531 19.9067 44.2131 19.24 44.2131 18.48ZM50.8878 14.58C51.2211 14.02 51.6611 13.5867 52.2078 13.28C52.7678 12.96 53.4278 12.8 54.1878 12.8V15.16H53.6078C52.7145 15.16 52.0345 15.3867 51.5678 15.84C51.1145 16.2933 50.8878 17.08 50.8878 18.2V24H48.6078V12.98H50.8878V14.58ZM60.9436 12.8C61.8103 12.8 62.5836 12.98 63.2636 13.34C63.9569 13.7 64.4969 14.2333 64.8836 14.94C65.2703 15.6467 65.4636 16.5 65.4636 17.5V24H63.2036V17.84C63.2036 16.8533 62.9569 16.1 62.4636 15.58C61.9703 15.0467 61.2969 14.78 60.4436 14.78C59.5903 14.78 58.9103 15.0467 58.4036 15.58C57.9103 16.1 57.6636 16.8533 57.6636 17.84V24H55.3836V12.98H57.6636V14.24C58.0369 13.7867 58.5103 13.4333 59.0836 13.18C59.6703 12.9267 60.2903 12.8 60.9436 12.8ZM86.4072 10.1V24H84.1272V14.48L79.8872 24H78.3072L74.0472 14.48V24H71.7672V10.1H74.2272L79.1072 21L83.9672 10.1H86.4072ZM93.2839 24.18C92.2439 24.18 91.3039 23.9467 90.4639 23.48C89.6239 23 88.9639 22.3333 88.4839 21.48C88.0039 20.6133 87.7639 19.6133 87.7639 18.48C87.7639 17.36 88.0106 16.3667 88.5039 15.5C88.9972 14.6333 89.6706 13.9667 90.5239 13.5C91.3772 13.0333 92.3306 12.8 93.3839 12.8C94.4372 12.8 95.3906 13.0333 96.2439 13.5C97.0972 13.9667 97.7706 14.6333 98.2639 15.5C98.7572 16.3667 99.0039 17.36 99.0039 18.48C99.0039 19.6 98.7506 20.5933 98.2439 21.46C97.7372 22.3267 97.0439 23 96.1639 23.48C95.2972 23.9467 94.3372 24.18 93.2839 24.18ZM93.2839 22.2C93.8706 22.2 94.4172 22.06 94.9239 21.78C95.4439 21.5 95.8639 21.08 96.1839 20.52C96.5039 19.96 96.6639 19.28 96.6639 18.48C96.6639 17.68 96.5106 17.0067 96.2039 16.46C95.8972 15.9 95.4906 15.48 94.9839 15.2C94.4772 14.92 93.9306 14.78 93.3439 14.78C92.7572 14.78 92.2106 14.92 91.7039 15.2C91.2106 15.48 90.8172 15.9 90.5239 16.46C90.2306 17.0067 90.0839 17.68 90.0839 18.48C90.0839 19.6667 90.3839 20.5867 90.9839 21.24C91.5972 21.88 92.3639 22.2 93.2839 22.2ZM102.638 14.58C102.971 14.02 103.411 13.5867 103.958 13.28C104.518 12.96 105.178 12.8 105.938 12.8V15.16H105.358C104.464 15.16 103.784 15.3867 103.318 15.84C102.864 16.2933 102.638 17.08 102.638 18.2V24H100.358V12.98H102.638V14.58ZM117.234 18.22C117.234 18.6333 117.207 19.0067 117.154 19.34H108.734C108.8 20.22 109.127 20.9267 109.714 21.46C110.3 21.9933 111.02 22.26 111.874 22.26C113.1 22.26 113.967 21.7467 114.474 20.72H116.934C116.6 21.7333 115.994 22.5667 115.114 23.22C114.247 23.86 113.167 24.18 111.874 24.18C110.82 24.18 109.874 23.9467 109.034 23.48C108.207 23 107.554 22.3333 107.074 21.48C106.607 20.6133 106.374 19.6133 106.374 18.48C106.374 17.3467 106.6 16.3533 107.054 15.5C107.52 14.6333 108.167 13.9667 108.994 13.5C109.834 13.0333 110.794 12.8 111.874 12.8C112.914 12.8 113.84 13.0267 114.654 13.48C115.467 13.9333 116.1 14.5733 116.554 15.4C117.007 16.2133 117.234 17.1533 117.234 18.22ZM114.854 17.5C114.84 16.66 114.54 15.9867 113.954 15.48C113.367 14.9733 112.64 14.72 111.774 14.72C110.987 14.72 110.314 14.9733 109.754 15.48C109.194 15.9733 108.86 16.6467 108.754 17.5H114.854Z" fill="#353535"/>
</svg>
