<svg width="132" height="36" viewBox="0 0 132 36" fill="none" xmlns="http://www.w3.org/2000/svg">
<rect width="132" height="36" rx="7" fill="#9CFF00"/>
<path d="M53.7973 24H51.5173L44.6573 13.62V24H42.3773V10.08H44.6573L51.5173 20.44V10.08H53.7973V24ZM65.9914 18.22C65.9914 18.6333 65.9647 19.0067 65.9114 19.34H57.4914C57.5581 20.22 57.8847 20.9267 58.4714 21.46C59.0581 21.9933 59.7781 22.26 60.6314 22.26C61.8581 22.26 62.7247 21.7467 63.2314 20.72H65.6914C65.3581 21.7333 64.7514 22.5667 63.8714 23.22C63.0047 23.86 61.9247 24.18 60.6314 24.18C59.5781 24.18 58.6314 23.9467 57.7914 23.48C56.9647 23 56.3114 22.3333 55.8314 21.48C55.3647 20.6133 55.1314 19.6133 55.1314 18.48C55.1314 17.3467 55.3581 16.3533 55.8114 15.5C56.2781 14.6333 56.9247 13.9667 57.7514 13.5C58.5914 13.0333 59.5514 12.8 60.6314 12.8C61.6714 12.8 62.5981 13.0267 63.4114 13.48C64.2247 13.9333 64.8581 14.5733 65.3114 15.4C65.7647 16.2133 65.9914 17.1533 65.9914 18.22ZM63.6114 17.5C63.5981 16.66 63.2981 15.9867 62.7114 15.48C62.1247 14.9733 61.3981 14.72 60.5314 14.72C59.7447 14.72 59.0714 14.9733 58.5114 15.48C57.9514 15.9733 57.6181 16.6467 57.5114 17.5H63.6114ZM82.1352 12.98L78.7152 24H76.3152L74.0952 15.86L71.8752 24H69.4752L66.0352 12.98H68.3552L70.6552 21.84L72.9952 12.98H75.3752L77.6152 21.8L79.8952 12.98H82.1352ZM86.9391 24.18C86.0724 24.18 85.2924 24.0267 84.5991 23.72C83.9191 23.4 83.3791 22.9733 82.9791 22.44C82.5791 21.8933 82.3657 21.2867 82.3391 20.62H84.6991C84.7391 21.0867 84.9591 21.48 85.3591 21.8C85.7724 22.1067 86.2857 22.26 86.8991 22.26C87.5391 22.26 88.0324 22.14 88.3791 21.9C88.7391 21.6467 88.9191 21.3267 88.9191 20.94C88.9191 20.5267 88.7191 20.22 88.3191 20.02C87.9324 19.82 87.3124 19.6 86.4591 19.36C85.6324 19.1333 84.9591 18.9133 84.4391 18.7C83.9191 18.4867 83.4657 18.16 83.0791 17.72C82.7057 17.28 82.5191 16.7 82.5191 15.98C82.5191 15.3933 82.6924 14.86 83.0391 14.38C83.3857 13.8867 83.8791 13.5 84.5191 13.22C85.1724 12.94 85.9191 12.8 86.7591 12.8C88.0124 12.8 89.0191 13.12 89.7791 13.76C90.5524 14.3867 90.9657 15.2467 91.0191 16.34H88.7391C88.6991 15.8467 88.4991 15.4533 88.1391 15.16C87.7791 14.8667 87.2924 14.72 86.6791 14.72C86.0791 14.72 85.6191 14.8333 85.2991 15.06C84.9791 15.2867 84.8191 15.5867 84.8191 15.96C84.8191 16.2533 84.9257 16.5 85.1391 16.7C85.3524 16.9 85.6124 17.06 85.9191 17.18C86.2257 17.2867 86.6791 17.4267 87.2791 17.6C88.0791 17.8133 88.7324 18.0333 89.2391 18.26C89.7591 18.4733 90.2057 18.7933 90.5791 19.22C90.9524 19.6467 91.1457 20.2133 91.1591 20.92C91.1591 21.5467 90.9857 22.1067 90.6391 22.6C90.2924 23.0933 89.7991 23.48 89.1591 23.76C88.5324 24.04 87.7924 24.18 86.9391 24.18Z" fill="#353535"/>
<rect width="132" height="36" rx="7" fill="#9CFF00"/>
<path d="M51.5173 10.08V20.44L44.6573 10.08H42.3773V24H44.6573V13.62L51.5173 24H53.7973V10.08H51.5173ZM60.5314 14.72C62.2314 14.72 63.5714 15.8 63.6114 17.5H57.5114C57.7514 15.76 58.9914 14.72 60.5314 14.72ZM65.6914 20.72H63.2314C62.8114 21.58 62.0314 22.26 60.6314 22.26C58.9514 22.26 57.6514 21.16 57.4914 19.34H65.9114C65.9714 18.96 65.9914 18.6 65.9914 18.22C65.9914 14.98 63.7714 12.8 60.6314 12.8C57.3714 12.8 55.1314 15.02 55.1314 18.48C55.1314 21.94 57.4714 24.18 60.6314 24.18C63.3314 24.18 65.0714 22.64 65.6914 20.72ZM69.4752 24H71.8752L74.0952 15.86L76.3152 24H78.7152L82.1352 12.98H79.8952L77.6152 21.8L75.3752 12.98H72.9952L70.6552 21.84L68.3552 12.98H66.0352L69.4752 24ZM91.1591 20.92C91.0391 16.94 84.8191 18.18 84.8191 15.96C84.8191 15.22 85.4591 14.72 86.6791 14.72C87.9191 14.72 88.6591 15.38 88.7391 16.34H91.0191C90.8991 14.14 89.2591 12.8 86.7591 12.8C84.1591 12.8 82.5191 14.22 82.5191 15.98C82.5191 20.02 88.9191 18.78 88.9191 20.94C88.9191 21.7 88.2191 22.26 86.8991 22.26C85.6391 22.26 84.7791 21.52 84.6991 20.62H82.3391C82.4391 22.62 84.2991 24.18 86.9391 24.18C89.5391 24.18 91.1591 22.78 91.1591 20.92Z" fill="#353535"/>
</svg>
