<svg width="206" height="87" viewBox="0 0 206 87" fill="none" xmlns="http://www.w3.org/2000/svg">
<path opacity="0.5" d="M3.15056 3.472L3.15046 3.47191L3.14274 3.48055C1.36523 5.46883 0.5 8.09889 0.5 11.3172V72.869C0.5 77.6094 1.50562 81.1316 3.63796 83.3021C5.77879 85.4813 9.46555 86.5 14.5358 86.5H44.8415H45.3415V86V36.9931V36.4931H44.8415H27.9517H27.4517V36.9931V70.0241H20.0459C19.6108 70.0241 19.3746 69.9108 19.2407 69.7697C19.1022 69.6236 18.9887 69.3592 18.9887 68.8828V18.469C18.9887 17.9925 19.1022 17.7281 19.2407 17.5821C19.3746 17.4409 19.6108 17.3276 20.0459 17.3276H39.0918H39.6953L39.5831 16.7346L36.5884 0.907047L36.5114 0.5H36.0972H11.3016C7.7779 0.5 5.03064 1.46457 3.15056 3.472ZM67.0954 86.5H67.527L67.5901 86.073L69.0843 75.9483H80.0798L81.574 86.073L81.637 86.5H82.0686H99.5573H100.158L100.049 85.9092L84.3571 0.909229L84.2815 0.5H83.8654H65.2986H64.8825L64.8069 0.909229L49.115 85.9092L49.006 86.5H49.6067H67.0954ZM132.558 80.0576L142.602 49.0677V86V86.5H143.102H159.992H160.492V86V1V0.5H159.992H141.545H141.16L141.061 0.872476L132.082 34.9154L123.102 0.872476L123.004 0.5H122.619H104.292H103.792V1V86V86.5H104.292H121.181H121.681V86V49.1008L131.606 80.0561L132.079 81.5331L132.558 80.0576ZM167.226 0.5H166.726V1V86V86.5H167.226H200.287H200.701L200.778 86.093L203.773 70.2654L203.885 69.6724H203.281H185.574V52.1483H199.448H199.948V51.6483V36.9931V36.4931H199.448H185.574V17.3276H204H204.603L204.491 16.7346L201.497 0.907047L201.42 0.5H201.005H167.226ZM71.1413 61.4655L74.6345 35.622L78.0249 61.4655H71.1413Z" stroke="white"/>
</svg>
