<svg width="406" height="88" viewBox="0 0 406 88" fill="none" xmlns="http://www.w3.org/2000/svg">
<path d="M3.16379 4.20695L3.16369 4.20686L3.15594 4.21548C1.36972 6.20372 0.5 8.83411 0.5 12.0531V73.6048C0.5 78.3457 1.51076 81.8683 3.65358 84.0388C5.80427 86.2173 9.50793 87.2358 14.6024 87.2358H45.0575H45.5575V86.7358V37.7289V37.2289H45.0575H28.0845H27.5845V37.7289V70.76H20.1397C19.7014 70.76 19.463 70.6463 19.3279 70.5046C19.1887 70.3585 19.0748 70.0945 19.0748 69.6186V19.2048C19.0748 18.729 19.1887 18.4649 19.3279 18.3188C19.463 18.1772 19.7014 18.0634 20.1397 18.0634H39.2794H39.8835L39.7706 17.47L36.7613 1.64245L36.6839 1.23584H36.2701H11.3523C7.81242 1.23584 5.05268 2.2 3.16379 4.20695ZM67.421 87.2358H67.8523L67.9156 86.8092L69.4172 76.6841H80.4718L81.9734 86.8092L82.0366 87.2358H82.468H100.043H100.644L100.534 86.6446L84.7652 1.64464L84.6894 1.23584H84.2736H65.6154H65.1996L65.1238 1.64464L49.3546 86.6446L49.2449 87.2358H49.8462H67.421ZM133.203 80.7942L143.302 49.7887V86.7358V87.2358H143.802H160.775H161.275V86.7358V1.73584V1.23584H160.775H142.237H141.853L141.754 1.60773L132.728 35.6603L123.701 1.60773L123.603 1.23584H123.218H104.8H104.3V1.73584V86.7358V87.2358H104.8H121.773H122.273V86.7358V49.8217L132.252 80.7926L132.725 82.2617L133.203 80.7942ZM168.045 1.23584H167.545V1.73584V86.7358V87.2358H168.045H201.268H201.682L201.76 86.8292L204.769 71.0017L204.882 70.4083H204.278H186.481V52.8841H200.426H200.926V52.3841V37.7289V37.2289H200.426H186.481V18.0634H205H205.604L205.491 17.47L202.482 1.64244L202.404 1.23584H201.991H168.045ZM71.4844 62.2014L74.9973 36.3396L78.4068 62.2014H71.4844Z" fill="white" stroke="white"/>
<path opacity="0.5" d="M246.555 49.3851L246.546 49.3962L246.543 49.4004C246.536 49.4061 246.495 49.4368 246.378 49.4686C246.219 49.5111 245.981 49.5393 245.647 49.5393H237.598V17.1255H245.765C246.195 17.1255 246.427 17.2382 246.559 17.3784C246.696 17.5244 246.809 17.7894 246.809 18.2669V48.2807C246.809 48.8569 246.697 49.1976 246.555 49.3851ZM257.921 63.7601L257.931 63.7566L257.941 63.7526C259.578 63.1061 260.912 62.2479 261.922 61.167C262.928 60.0912 263.603 58.8447 263.941 57.434C264.349 55.9807 264.551 54.4137 264.551 52.7358V12.0531C264.551 8.83214 263.652 6.201 261.809 4.21365C260.021 2.19921 257.33 1.23584 253.839 1.23584H220H219.5V1.73584V86.7358V87.2358H220H237.098H237.598V86.7358V64.6083H251.821C254.23 64.6083 256.268 64.3313 257.921 63.7601ZM270.787 1.23584H270.287V1.73584V86.7358V87.2358H270.787H302.845H303.26L303.337 86.828L306.305 71.0004L306.416 70.4083H305.814H288.978V1.73584V1.23584H288.478H270.787ZM326.679 87.2358H327.111L327.173 86.8082L328.654 76.6841H339.545L341.026 86.8082L341.088 87.2358H341.52H358.856H359.456L359.348 86.6458L343.793 1.64584L343.718 1.23584H343.301H324.898H324.481L324.406 1.64584L308.851 86.6458L308.744 87.2358H309.343H326.679ZM387.496 87.2358H387.996V86.7358V65.2274L404.484 1.86175L404.647 1.23584H404H386.19H385.778L385.699 1.63993L378.357 39.2065L371.126 1.64133L371.048 1.23584H370.636H352.825H352.179L352.341 1.86175L368.829 65.2274V86.7358V87.2358H369.329H387.496ZM337.508 62.2014H330.693L334.151 36.3908L337.508 62.2014Z" stroke="white"/>
</svg>
