<svg width="408" height="88" viewBox="0 0 408 88" fill="none" xmlns="http://www.w3.org/2000/svg">
<path opacity="0.5" d="M3.15056 4.20784L3.15046 4.20775L3.14274 4.21639C1.36523 6.20467 0.5 8.83473 0.5 12.0531V73.6048C0.5 78.3452 1.50562 81.8674 3.63796 84.038C5.77879 86.2171 9.46555 87.2358 14.5358 87.2358H44.8415H45.3415V86.7358V37.7289V37.2289H44.8415H27.9517H27.4517V37.7289V70.76H20.0459C19.6108 70.76 19.3746 70.6466 19.2407 70.5055C19.1022 70.3595 18.9887 70.095 18.9887 69.6186V19.2048C18.9887 18.7284 19.1022 18.464 19.2407 18.3179C19.3746 18.1768 19.6108 18.0634 20.0459 18.0634H39.0918H39.6953L39.5831 17.4705L36.5884 1.64289L36.5114 1.23584H36.0972H11.3016C7.7779 1.23584 5.03064 2.20041 3.15056 4.20784ZM67.0954 87.2358H67.527L67.5901 86.8088L69.0843 76.6841H80.0798L81.574 86.8088L81.637 87.2358H82.0686H99.5573H100.158L100.049 86.6451L84.3571 1.64507L84.2815 1.23584H83.8654H65.2986H64.8825L64.8069 1.64507L49.115 86.6451L49.006 87.2358H49.6067H67.0954ZM132.558 80.7935L142.602 49.8035V86.7358V87.2358H143.102H159.992H160.492V86.7358V1.73584V1.23584H159.992H141.545H141.16L141.061 1.60832L132.082 35.6513L123.102 1.60832L123.004 1.23584H122.619H104.292H103.792V1.73584V86.7358V87.2358H104.292H121.181H121.681V86.7358V49.8366L131.606 80.7919L132.079 82.2689L132.558 80.7935ZM167.226 1.23584H166.726V1.73584V86.7358V87.2358H167.226H200.287H200.701L200.778 86.8288L203.773 71.0012L203.885 70.4083H203.281H185.574V52.8841H199.448H199.948V52.3841V37.7289V37.2289H199.448H185.574V18.0634H204H204.603L204.491 17.4705L201.497 1.64289L201.42 1.23584H201.005H167.226ZM71.1413 62.2014L74.6345 36.3578L78.0249 62.2014H71.1413Z" stroke="white"/>
<g opacity="0.5">
<path d="M240.191 16.6255V50.0393H248.786C249.502 50.0393 249.94 49.922 250.099 49.6876C250.338 49.3749 250.457 48.906 250.457 48.2807V18.2669C250.457 17.1726 249.94 16.6255 248.905 16.6255H240.191ZM257.023 1.73584C260.446 1.73584 262.992 2.67377 264.664 4.54963C266.415 6.42549 267.29 8.92664 267.29 12.0531V52.7358C267.29 54.3772 267.091 55.9014 266.693 57.3083C266.375 58.637 265.738 59.8094 264.783 60.8255C263.828 61.8416 262.555 62.6623 260.963 63.2876C259.371 63.8347 257.381 64.1083 254.994 64.1083H240.191V86.7358H223V1.73584H257.023Z" fill="white"/>
<path d="M274.063 1.73584H291.851V70.9083H309.28L306.296 86.7358H274.063V1.73584Z" fill="white"/>
<path d="M331.81 76.1841L330.258 86.7358H312.829L328.468 1.73584H346.972L362.61 86.7358H345.181L343.629 76.1841H331.81ZM333.72 62.7014H341.719L337.779 32.5703L333.72 62.7014Z" fill="white"/>
<path d="M391.406 86.7358H373.141V65.1634L356.547 1.73584H374.454L382.214 41.8324L390.093 1.73584H408L391.406 65.1634V86.7358Z" fill="white"/>
</g>
</svg>
