<svg width="187" height="87" viewBox="0 0 187 87" fill="none" xmlns="http://www.w3.org/2000/svg">
<path opacity="0.5" d="M27.5546 48.6493L27.5462 48.6604L27.5434 48.6646C27.5361 48.6703 27.4954 48.701 27.3775 48.7327C27.2194 48.7753 26.9813 48.8034 26.6467 48.8034H18.5978V16.3897H26.7655C27.1948 16.3897 27.427 16.5023 27.5589 16.6425C27.6962 16.7885 27.809 17.0536 27.809 17.531V47.5448C27.809 48.121 27.6971 48.4617 27.5546 48.6493ZM38.921 63.0243L38.9313 63.0208L38.9413 63.0168C40.5783 62.3702 41.9119 61.5121 42.9224 60.4311C43.9281 59.3553 44.6031 58.1089 44.941 56.6981C45.3488 55.2449 45.5506 53.6779 45.5506 52V11.3172C45.5506 8.0963 44.6516 5.46516 42.8088 3.47781C41.021 1.46337 38.3301 0.5 34.8394 0.5H1H0.5V1V86V86.5H1H18.0978H18.5978V86V63.8724H32.8209C35.2299 63.8724 37.2684 63.5954 38.921 63.0243ZM51.787 0.5H51.287V1V86V86.5H51.787H83.8454H84.2603L84.3368 86.0922L87.3052 70.2646L87.4162 69.6724H86.8137H69.9784V1V0.5H69.4784H51.787ZM107.679 86.5H108.111L108.173 86.0724L109.654 75.9483H120.545L122.026 86.0724L122.088 86.5H122.52H139.856H140.456L140.348 85.91L124.793 0.909999L124.718 0.5H124.301H105.898H105.481L105.406 0.909999L89.8515 85.91L89.7435 86.5H90.3433H107.679ZM168.496 86.5H168.996V86V64.4916L185.484 1.12591L185.647 0.5H185H167.19H166.778L166.699 0.904094L159.357 38.4707L152.126 0.905495L152.048 0.5H151.636H133.825H133.179L133.341 1.12591L149.829 64.4916V86V86.5H150.329H168.496ZM118.508 61.4655H111.693L115.151 35.6549L118.508 61.4655Z" stroke="white"/>
</svg>
