<svg width="185" height="85" viewBox="0 0 185 85" fill="none" xmlns="http://www.w3.org/2000/svg">
<g opacity="0.5">
<path d="M17.1907 14.8897V48.3034H25.7861C26.5024 48.3034 26.9401 48.1862 27.0993 47.9517C27.338 47.6391 27.4574 47.1701 27.4574 46.5448V16.531C27.4574 15.4368 26.9401 14.8897 25.9055 14.8897H17.1907ZM34.0233 0C37.4456 0 39.9923 0.937931 41.6637 2.81379C43.4146 4.68965 44.29 7.1908 44.29 10.3172V51C44.29 52.6414 44.0911 54.1655 43.6931 55.5724C43.3748 56.9011 42.7381 58.0736 41.783 59.0897C40.828 60.1057 39.5546 60.9264 37.9629 61.5517C36.3711 62.0989 34.3815 62.3724 31.9939 62.3724H17.1907V85H0V0H34.0233Z" fill="white"/>
<path d="M51.063 0H68.8506V69.1724H86.2801L83.2956 85H51.063V0Z" fill="white"/>
<path d="M108.81 74.4483L107.258 85H89.8289L105.468 0H123.972L139.61 85H122.181L120.629 74.4483H108.81ZM110.72 60.9655H118.719L114.779 30.8345L110.72 60.9655Z" fill="white"/>
<path d="M168.406 85H150.141V63.4276L133.547 0H151.454L159.214 40.0966L167.093 0H185L168.406 63.4276V85Z" fill="white"/>
</g>
</svg>
