<svg width="317" height="82" viewBox="0 0 317 82" fill="none" xmlns="http://www.w3.org/2000/svg">
<g opacity="0.5">
<path d="M16.2201 14.3641V35.8538H23.8796C24.4804 35.8538 24.9685 35.703 25.344 35.4014C25.7194 35.0244 25.9071 34.4589 25.9071 33.7048V15.9476C25.9071 14.892 25.419 14.3641 24.4428 14.3641H16.2201ZM26.1324 50.6703C26.1324 49.7655 25.9071 49.1623 25.4566 48.8607C25.006 48.4837 24.4053 48.2952 23.6544 48.2952H16.2201V67.6359H24.4428C25.1187 67.6359 25.5692 67.5228 25.7945 67.2966C26.0198 66.9949 26.1324 66.5425 26.1324 65.9393V50.6703ZM41.5641 32.4607C41.5641 34.4966 41.1511 36.2685 40.325 37.7766C39.5741 39.2092 38.1098 40.2271 35.9321 40.8303C38.1849 40.9811 39.7994 41.7729 40.7756 43.2055C41.8269 44.6382 42.3526 46.2593 42.3526 48.069V69.3324C42.3526 73.8566 41.4139 77.0988 39.5366 79.0593C37.6592 81.0198 34.3551 82 29.6243 82H0V0H31.8771C35.1061 0 37.509 0.904827 39.086 2.71448C40.7381 4.52414 41.5641 6.93701 41.5641 9.9531V32.4607Z" fill="#D6D6D6"/>
<path d="M49.0599 0H80.8243L83.6403 15.269H65.8432V34.7228H79.36V48.8607H65.8432V66.731H82.9645L80.1485 82H49.0599V0Z" fill="#D6D6D6"/>
<path d="M89.3198 0H104.864L113.199 32.9131V0H129.983V82H113.199L104.414 47.7297V82H89.3198V0Z" fill="#D6D6D6"/>
<path d="M136.73 0H168.494L171.31 15.269H153.513V34.7228H167.03V48.8607H153.513V66.731H170.634L167.818 82H136.73V0Z" fill="#D6D6D6"/>
<path d="M176.99 0H208.754L211.57 15.269H193.773V34.7228H207.29V48.8607H193.773V82H176.99V0Z" fill="#D6D6D6"/>
<path d="M216.59 0H232.922V82H216.59V0Z" fill="#D6D6D6"/>
<path d="M271.904 0L275.96 15.269H265.033V82H248.363V15.269H237.437L241.717 0H271.904Z" fill="#D6D6D6"/>
<path d="M284.334 82L281.406 66.731H298.978C300.254 66.731 300.893 66.1655 300.893 65.0345V50.1048C300.893 48.9738 300.667 48.2952 300.217 48.069C299.766 47.8428 298.978 47.7297 297.851 47.7297H289.403C288.202 47.7297 287.038 47.6543 285.911 47.5034C284.86 47.2772 283.884 46.8248 282.983 46.1462C282.157 45.4676 281.481 44.5251 280.955 43.3186C280.505 42.1122 280.279 40.491 280.279 38.4552V10.6317C280.279 7.38942 281.143 4.82575 282.87 2.94069C284.672 0.980229 287.488 0 291.318 0H313.846L316.662 15.269H298.189C296.837 15.269 296.162 15.8722 296.162 17.0786V32.0083C296.162 32.8377 296.349 33.4032 296.725 33.7048C297.175 34.0064 297.814 34.1572 298.64 34.1572H308.89C311.518 34.1572 313.508 34.7982 314.86 36.08C316.287 37.2864 317 39.4354 317 42.5269V69.5586C317 74.0828 316.061 77.2874 314.184 79.1724C312.382 81.0575 309.153 82 304.497 82H284.334Z" fill="#D6D6D6"/>
</g>
</svg>
