<svg width="319" height="84" viewBox="0 0 319 84" fill="none" xmlns="http://www.w3.org/2000/svg">
<mask id="path-1-outside-1_787_1724" maskUnits="userSpaceOnUse" x="0" y="0" width="319" height="84" fill="black">
<rect fill="white" width="319" height="84"/>
<path d="M17.2201 15.3641V36.8538H24.8796C25.4804 36.8538 25.9685 36.703 26.344 36.4014C26.7194 36.0244 26.9071 35.4589 26.9071 34.7048V16.9476C26.9071 15.892 26.419 15.3641 25.4428 15.3641H17.2201ZM27.1324 51.6703C27.1324 50.7655 26.9071 50.1623 26.4566 49.8607C26.006 49.4837 25.4053 49.2952 24.6544 49.2952H17.2201V68.6359H25.4428C26.1187 68.6359 26.5692 68.5228 26.7945 68.2966C27.0198 67.9949 27.1324 67.5425 27.1324 66.9393V51.6703ZM42.5641 33.4607C42.5641 35.4966 42.1511 37.2685 41.325 38.7766C40.5741 40.2092 39.1098 41.2271 36.9321 41.8303C39.1849 41.9811 40.7994 42.7729 41.7756 44.2055C42.8269 45.6382 43.3526 47.2593 43.3526 49.069V70.3324C43.3526 74.8566 42.4139 78.0988 40.5366 80.0593C38.6592 82.0198 35.3551 83 30.6243 83H1V1H32.8771C36.1061 1 38.509 1.90483 40.086 3.71448C41.7381 5.52414 42.5641 7.93701 42.5641 10.9531V33.4607Z"/>
<path d="M50.0599 1H81.8243L84.6403 16.269H66.8432V35.7228H80.36V49.8607H66.8432V67.731H83.9645L81.1485 83H50.0599V1Z"/>
<path d="M90.3198 1H105.864L114.199 33.9131V1H130.983V83H114.199L105.414 48.7297V83H90.3198V1Z"/>
<path d="M137.73 1H169.494L172.31 16.269H154.513V35.7228H168.03V49.8607H154.513V67.731H171.634L168.818 83H137.73V1Z"/>
<path d="M177.99 1H209.754L212.57 16.269H194.773V35.7228H208.29V49.8607H194.773V83H177.99V1Z"/>
<path d="M217.59 1H233.922V83H217.59V1Z"/>
<path d="M272.904 1L276.96 16.269H266.033V83H249.363V16.269H238.437L242.717 1H272.904Z"/>
<path d="M285.334 83L282.406 67.731H299.978C301.254 67.731 301.893 67.1655 301.893 66.0345V51.1048C301.893 49.9738 301.667 49.2952 301.217 49.069C300.766 48.8428 299.978 48.7297 298.851 48.7297H290.403C289.202 48.7297 288.038 48.6543 286.911 48.5034C285.86 48.2772 284.884 47.8248 283.983 47.1462C283.157 46.4676 282.481 45.5251 281.955 44.3186C281.505 43.1122 281.279 41.491 281.279 39.4552V11.6317C281.279 8.38942 282.143 5.82575 283.87 3.94069C285.672 1.98023 288.488 1 292.318 1H314.846L317.662 16.269H299.189C297.837 16.269 297.162 16.8722 297.162 18.0786V33.0083C297.162 33.8377 297.349 34.4032 297.725 34.7048C298.175 35.0064 298.814 35.1572 299.64 35.1572H309.89C312.518 35.1572 314.508 35.7982 315.86 37.08C317.287 38.2864 318 40.4354 318 43.5269V70.5586C318 75.0828 317.061 78.2874 315.184 80.1724C313.382 82.0575 310.153 83 305.497 83H285.334Z"/>
</mask>
<path d="M17.2201 15.3641V36.8538H24.8796C25.4804 36.8538 25.9685 36.703 26.344 36.4014C26.7194 36.0244 26.9071 35.4589 26.9071 34.7048V16.9476C26.9071 15.892 26.419 15.3641 25.4428 15.3641H17.2201ZM27.1324 51.6703C27.1324 50.7655 26.9071 50.1623 26.4566 49.8607C26.006 49.4837 25.4053 49.2952 24.6544 49.2952H17.2201V68.6359H25.4428C26.1187 68.6359 26.5692 68.5228 26.7945 68.2966C27.0198 67.9949 27.1324 67.5425 27.1324 66.9393V51.6703ZM42.5641 33.4607C42.5641 35.4966 42.1511 37.2685 41.325 38.7766C40.5741 40.2092 39.1098 41.2271 36.9321 41.8303C39.1849 41.9811 40.7994 42.7729 41.7756 44.2055C42.8269 45.6382 43.3526 47.2593 43.3526 49.069V70.3324C43.3526 74.8566 42.4139 78.0988 40.5366 80.0593C38.6592 82.0198 35.3551 83 30.6243 83H1V1H32.8771C36.1061 1 38.509 1.90483 40.086 3.71448C41.7381 5.52414 42.5641 7.93701 42.5641 10.9531V33.4607Z" stroke="#9CFF00" stroke-width="2" mask="url(#path-1-outside-1_787_1724)"/>
<path d="M50.0599 1H81.8243L84.6403 16.269H66.8432V35.7228H80.36V49.8607H66.8432V67.731H83.9645L81.1485 83H50.0599V1Z" stroke="#9CFF00" stroke-width="2" mask="url(#path-1-outside-1_787_1724)"/>
<path d="M90.3198 1H105.864L114.199 33.9131V1H130.983V83H114.199L105.414 48.7297V83H90.3198V1Z" stroke="#9CFF00" stroke-width="2" mask="url(#path-1-outside-1_787_1724)"/>
<path d="M137.73 1H169.494L172.31 16.269H154.513V35.7228H168.03V49.8607H154.513V67.731H171.634L168.818 83H137.73V1Z" stroke="#9CFF00" stroke-width="2" mask="url(#path-1-outside-1_787_1724)"/>
<path d="M177.99 1H209.754L212.57 16.269H194.773V35.7228H208.29V49.8607H194.773V83H177.99V1Z" stroke="#9CFF00" stroke-width="2" mask="url(#path-1-outside-1_787_1724)"/>
<path d="M217.59 1H233.922V83H217.59V1Z" stroke="#9CFF00" stroke-width="2" mask="url(#path-1-outside-1_787_1724)"/>
<path d="M272.904 1L276.96 16.269H266.033V83H249.363V16.269H238.437L242.717 1H272.904Z" stroke="#9CFF00" stroke-width="2" mask="url(#path-1-outside-1_787_1724)"/>
<path d="M285.334 83L282.406 67.731H299.978C301.254 67.731 301.893 67.1655 301.893 66.0345V51.1048C301.893 49.9738 301.667 49.2952 301.217 49.069C300.766 48.8428 299.978 48.7297 298.851 48.7297H290.403C289.202 48.7297 288.038 48.6543 286.911 48.5034C285.86 48.2772 284.884 47.8248 283.983 47.1462C283.157 46.4676 282.481 45.5251 281.955 44.3186C281.505 43.1122 281.279 41.491 281.279 39.4552V11.6317C281.279 8.38942 282.143 5.82575 283.87 3.94069C285.672 1.98023 288.488 1 292.318 1H314.846L317.662 16.269H299.189C297.837 16.269 297.162 16.8722 297.162 18.0786V33.0083C297.162 33.8377 297.349 34.4032 297.725 34.7048C298.175 35.0064 298.814 35.1572 299.64 35.1572H309.89C312.518 35.1572 314.508 35.7982 315.86 37.08C317.287 38.2864 318 40.4354 318 43.5269V70.5586C318 75.0828 317.061 78.2874 315.184 80.1724C313.382 82.0575 310.153 83 305.497 83H285.334Z" stroke="#9CFF00" stroke-width="2" mask="url(#path-1-outside-1_787_1724)"/>
</svg>
