<svg width="1665" height="84" viewBox="0 0 1665 84" fill="none" xmlns="http://www.w3.org/2000/svg">
<mask id="path-1-outside-1_787_1729" maskUnits="userSpaceOnUse" x="1010" y="0" width="319" height="84" fill="black">
<rect fill="white" x="1010" width="319" height="84"/>
<path d="M1027.22 15.3641V36.8538H1034.88C1035.48 36.8538 1035.97 36.703 1036.34 36.4014C1036.72 36.0244 1036.91 35.4589 1036.91 34.7048V16.9476C1036.91 15.892 1036.42 15.3641 1035.44 15.3641H1027.22ZM1037.13 51.6703C1037.13 50.7655 1036.91 50.1623 1036.46 49.8607C1036.01 49.4837 1035.41 49.2952 1034.65 49.2952H1027.22V68.6359H1035.44C1036.12 68.6359 1036.57 68.5228 1036.79 68.2966C1037.02 67.9949 1037.13 67.5425 1037.13 66.9393V51.6703ZM1052.56 33.4607C1052.56 35.4966 1052.15 37.2685 1051.33 38.7766C1050.57 40.2092 1049.11 41.2271 1046.93 41.8303C1049.18 41.9811 1050.8 42.7729 1051.78 44.2055C1052.83 45.6382 1053.35 47.2593 1053.35 49.069V70.3324C1053.35 74.8566 1052.41 78.0988 1050.54 80.0593C1048.66 82.0198 1045.36 83 1040.62 83H1011V1H1042.88C1046.11 1 1048.51 1.90483 1050.09 3.71448C1051.74 5.52414 1052.56 7.93701 1052.56 10.9531V33.4607Z"/>
<path d="M1060.06 1H1091.82L1094.64 16.269H1076.84V35.7228H1090.36V49.8607H1076.84V67.731H1093.96L1091.15 83H1060.06V1Z"/>
<path d="M1100.32 1H1115.86L1124.2 33.9131V1H1140.98V83H1124.2L1115.41 48.7297V83H1100.32V1Z"/>
<path d="M1147.73 1H1179.49L1182.31 16.269H1164.51V35.7228H1178.03V49.8607H1164.51V67.731H1181.63L1178.82 83H1147.73V1Z"/>
<path d="M1187.99 1H1219.75L1222.57 16.269H1204.77V35.7228H1218.29V49.8607H1204.77V83H1187.99V1Z"/>
<path d="M1227.59 1H1243.92V83H1227.59V1Z"/>
<path d="M1282.9 1L1286.96 16.269H1276.03V83H1259.36V16.269H1248.44L1252.72 1H1282.9Z"/>
<path d="M1295.33 83L1292.41 67.731H1309.98C1311.25 67.731 1311.89 67.1655 1311.89 66.0345V51.1048C1311.89 49.9738 1311.67 49.2952 1311.22 49.069C1310.77 48.8428 1309.98 48.7297 1308.85 48.7297H1300.4C1299.2 48.7297 1298.04 48.6543 1296.91 48.5034C1295.86 48.2772 1294.88 47.8248 1293.98 47.1462C1293.16 46.4676 1292.48 45.5251 1291.96 44.3186C1291.5 43.1122 1291.28 41.491 1291.28 39.4552V11.6317C1291.28 8.38942 1292.14 5.82575 1293.87 3.94069C1295.67 1.98023 1298.49 1 1302.32 1H1324.85L1327.66 16.269H1309.19C1307.84 16.269 1307.16 16.8722 1307.16 18.0786V33.0083C1307.16 33.8377 1307.35 34.4032 1307.72 34.7048C1308.18 35.0064 1308.81 35.1572 1309.64 35.1572H1319.89C1322.52 35.1572 1324.51 35.7982 1325.86 37.08C1327.29 38.2864 1328 40.4354 1328 43.5269V70.5586C1328 75.0828 1327.06 78.2874 1325.18 80.1724C1323.38 82.0575 1320.15 83 1315.5 83H1295.33Z"/>
</mask>
<path d="M1027.22 15.3641V36.8538H1034.88C1035.48 36.8538 1035.97 36.703 1036.34 36.4014C1036.72 36.0244 1036.91 35.4589 1036.91 34.7048V16.9476C1036.91 15.892 1036.42 15.3641 1035.44 15.3641H1027.22ZM1037.13 51.6703C1037.13 50.7655 1036.91 50.1623 1036.46 49.8607C1036.01 49.4837 1035.41 49.2952 1034.65 49.2952H1027.22V68.6359H1035.44C1036.12 68.6359 1036.57 68.5228 1036.79 68.2966C1037.02 67.9949 1037.13 67.5425 1037.13 66.9393V51.6703ZM1052.56 33.4607C1052.56 35.4966 1052.15 37.2685 1051.33 38.7766C1050.57 40.2092 1049.11 41.2271 1046.93 41.8303C1049.18 41.9811 1050.8 42.7729 1051.78 44.2055C1052.83 45.6382 1053.35 47.2593 1053.35 49.069V70.3324C1053.35 74.8566 1052.41 78.0988 1050.54 80.0593C1048.66 82.0198 1045.36 83 1040.62 83H1011V1H1042.88C1046.11 1 1048.51 1.90483 1050.09 3.71448C1051.74 5.52414 1052.56 7.93701 1052.56 10.9531V33.4607Z" stroke="#9CFF00" stroke-width="2" mask="url(#path-1-outside-1_787_1729)"/>
<path d="M1060.06 1H1091.82L1094.64 16.269H1076.84V35.7228H1090.36V49.8607H1076.84V67.731H1093.96L1091.15 83H1060.06V1Z" stroke="#9CFF00" stroke-width="2" mask="url(#path-1-outside-1_787_1729)"/>
<path d="M1100.32 1H1115.86L1124.2 33.9131V1H1140.98V83H1124.2L1115.41 48.7297V83H1100.32V1Z" stroke="#9CFF00" stroke-width="2" mask="url(#path-1-outside-1_787_1729)"/>
<path d="M1147.73 1H1179.49L1182.31 16.269H1164.51V35.7228H1178.03V49.8607H1164.51V67.731H1181.63L1178.82 83H1147.73V1Z" stroke="#9CFF00" stroke-width="2" mask="url(#path-1-outside-1_787_1729)"/>
<path d="M1187.99 1H1219.75L1222.57 16.269H1204.77V35.7228H1218.29V49.8607H1204.77V83H1187.99V1Z" stroke="#9CFF00" stroke-width="2" mask="url(#path-1-outside-1_787_1729)"/>
<path d="M1227.59 1H1243.92V83H1227.59V1Z" stroke="#9CFF00" stroke-width="2" mask="url(#path-1-outside-1_787_1729)"/>
<path d="M1282.9 1L1286.96 16.269H1276.03V83H1259.36V16.269H1248.44L1252.72 1H1282.9Z" stroke="#9CFF00" stroke-width="2" mask="url(#path-1-outside-1_787_1729)"/>
<path d="M1295.33 83L1292.41 67.731H1309.98C1311.25 67.731 1311.89 67.1655 1311.89 66.0345V51.1048C1311.89 49.9738 1311.67 49.2952 1311.22 49.069C1310.77 48.8428 1309.98 48.7297 1308.85 48.7297H1300.4C1299.2 48.7297 1298.04 48.6543 1296.91 48.5034C1295.86 48.2772 1294.88 47.8248 1293.98 47.1462C1293.16 46.4676 1292.48 45.5251 1291.96 44.3186C1291.5 43.1122 1291.28 41.491 1291.28 39.4552V11.6317C1291.28 8.38942 1292.14 5.82575 1293.87 3.94069C1295.67 1.98023 1298.49 1 1302.32 1H1324.85L1327.66 16.269H1309.19C1307.84 16.269 1307.16 16.8722 1307.16 18.0786V33.0083C1307.16 33.8377 1307.35 34.4032 1307.72 34.7048C1308.18 35.0064 1308.81 35.1572 1309.64 35.1572H1319.89C1322.52 35.1572 1324.51 35.7982 1325.86 37.08C1327.29 38.2864 1328 40.4354 1328 43.5269V70.5586C1328 75.0828 1327.06 78.2874 1325.18 80.1724C1323.38 82.0575 1320.15 83 1315.5 83H1295.33Z" stroke="#9CFF00" stroke-width="2" mask="url(#path-1-outside-1_787_1729)"/>
<mask id="path-2-outside-2_787_1729" maskUnits="userSpaceOnUse" x="336" y="0" width="319" height="84" fill="black">
<rect fill="white" x="336" width="319" height="84"/>
<path d="M353.22 15.3641V36.8538H360.88C361.48 36.8538 361.968 36.703 362.344 36.4014C362.719 36.0244 362.907 35.4589 362.907 34.7048V16.9476C362.907 15.892 362.419 15.3641 361.443 15.3641H353.22ZM363.132 51.6703C363.132 50.7655 362.907 50.1623 362.457 49.8607C362.006 49.4837 361.405 49.2952 360.654 49.2952H353.22V68.6359H361.443C362.119 68.6359 362.569 68.5228 362.795 68.2966C363.02 67.9949 363.132 67.5425 363.132 66.9393V51.6703ZM378.564 33.4607C378.564 35.4966 378.151 37.2685 377.325 38.7766C376.574 40.2092 375.11 41.2271 372.932 41.8303C375.185 41.9811 376.799 42.7729 377.776 44.2055C378.827 45.6382 379.353 47.2593 379.353 49.069V70.3324C379.353 74.8566 378.414 78.0988 376.537 80.0593C374.659 82.0198 371.355 83 366.624 83H337V1H368.877C372.106 1 374.509 1.90483 376.086 3.71448C377.738 5.52414 378.564 7.93701 378.564 10.9531V33.4607Z"/>
<path d="M386.06 1H417.824L420.64 16.269H402.843V35.7228H416.36V49.8607H402.843V67.731H419.964L417.148 83H386.06V1Z"/>
<path d="M426.32 1H441.864L450.199 33.9131V1H466.983V83H450.199L441.414 48.7297V83H426.32V1Z"/>
<path d="M473.73 1H505.494L508.31 16.269H490.513V35.7228H504.03V49.8607H490.513V67.731H507.634L504.818 83H473.73V1Z"/>
<path d="M513.99 1H545.754L548.57 16.269H530.773V35.7228H544.29V49.8607H530.773V83H513.99V1Z"/>
<path d="M553.59 1H569.922V83H553.59V1Z"/>
<path d="M608.904 1L612.96 16.269H602.033V83H585.363V16.269H574.437L578.717 1H608.904Z"/>
<path d="M621.334 83L618.406 67.731H635.978C637.254 67.731 637.893 67.1655 637.893 66.0345V51.1048C637.893 49.9738 637.667 49.2952 637.217 49.069C636.766 48.8428 635.978 48.7297 634.851 48.7297H626.403C625.202 48.7297 624.038 48.6543 622.911 48.5034C621.86 48.2772 620.884 47.8248 619.983 47.1462C619.157 46.4676 618.481 45.5251 617.955 44.3186C617.505 43.1122 617.279 41.491 617.279 39.4552V11.6317C617.279 8.38942 618.143 5.82575 619.87 3.94069C621.672 1.98023 624.488 1 628.318 1H650.846L653.662 16.269H635.189C633.837 16.269 633.162 16.8722 633.162 18.0786V33.0083C633.162 33.8377 633.349 34.4032 633.725 34.7048C634.175 35.0064 634.814 35.1572 635.64 35.1572H645.89C648.518 35.1572 650.508 35.7982 651.86 37.08C653.287 38.2864 654 40.4354 654 43.5269V70.5586C654 75.0828 653.061 78.2874 651.184 80.1724C649.382 82.0575 646.153 83 641.497 83H621.334Z"/>
</mask>
<path d="M353.22 15.3641V36.8538H360.88C361.48 36.8538 361.968 36.703 362.344 36.4014C362.719 36.0244 362.907 35.4589 362.907 34.7048V16.9476C362.907 15.892 362.419 15.3641 361.443 15.3641H353.22ZM363.132 51.6703C363.132 50.7655 362.907 50.1623 362.457 49.8607C362.006 49.4837 361.405 49.2952 360.654 49.2952H353.22V68.6359H361.443C362.119 68.6359 362.569 68.5228 362.795 68.2966C363.02 67.9949 363.132 67.5425 363.132 66.9393V51.6703ZM378.564 33.4607C378.564 35.4966 378.151 37.2685 377.325 38.7766C376.574 40.2092 375.11 41.2271 372.932 41.8303C375.185 41.9811 376.799 42.7729 377.776 44.2055C378.827 45.6382 379.353 47.2593 379.353 49.069V70.3324C379.353 74.8566 378.414 78.0988 376.537 80.0593C374.659 82.0198 371.355 83 366.624 83H337V1H368.877C372.106 1 374.509 1.90483 376.086 3.71448C377.738 5.52414 378.564 7.93701 378.564 10.9531V33.4607Z" stroke="#9CFF00" stroke-width="2" mask="url(#path-2-outside-2_787_1729)"/>
<path d="M386.06 1H417.824L420.64 16.269H402.843V35.7228H416.36V49.8607H402.843V67.731H419.964L417.148 83H386.06V1Z" stroke="#9CFF00" stroke-width="2" mask="url(#path-2-outside-2_787_1729)"/>
<path d="M426.32 1H441.864L450.199 33.9131V1H466.983V83H450.199L441.414 48.7297V83H426.32V1Z" stroke="#9CFF00" stroke-width="2" mask="url(#path-2-outside-2_787_1729)"/>
<path d="M473.73 1H505.494L508.31 16.269H490.513V35.7228H504.03V49.8607H490.513V67.731H507.634L504.818 83H473.73V1Z" stroke="#9CFF00" stroke-width="2" mask="url(#path-2-outside-2_787_1729)"/>
<path d="M513.99 1H545.754L548.57 16.269H530.773V35.7228H544.29V49.8607H530.773V83H513.99V1Z" stroke="#9CFF00" stroke-width="2" mask="url(#path-2-outside-2_787_1729)"/>
<path d="M553.59 1H569.922V83H553.59V1Z" stroke="#9CFF00" stroke-width="2" mask="url(#path-2-outside-2_787_1729)"/>
<path d="M608.904 1L612.96 16.269H602.033V83H585.363V16.269H574.437L578.717 1H608.904Z" stroke="#9CFF00" stroke-width="2" mask="url(#path-2-outside-2_787_1729)"/>
<path d="M621.334 83L618.406 67.731H635.978C637.254 67.731 637.893 67.1655 637.893 66.0345V51.1048C637.893 49.9738 637.667 49.2952 637.217 49.069C636.766 48.8428 635.978 48.7297 634.851 48.7297H626.403C625.202 48.7297 624.038 48.6543 622.911 48.5034C621.86 48.2772 620.884 47.8248 619.983 47.1462C619.157 46.4676 618.481 45.5251 617.955 44.3186C617.505 43.1122 617.279 41.491 617.279 39.4552V11.6317C617.279 8.38942 618.143 5.82575 619.87 3.94069C621.672 1.98023 624.488 1 628.318 1H650.846L653.662 16.269H635.189C633.837 16.269 633.162 16.8722 633.162 18.0786V33.0083C633.162 33.8377 633.349 34.4032 633.725 34.7048C634.175 35.0064 634.814 35.1572 635.64 35.1572H645.89C648.518 35.1572 650.508 35.7982 651.86 37.08C653.287 38.2864 654 40.4354 654 43.5269V70.5586C654 75.0828 653.061 78.2874 651.184 80.1724C649.382 82.0575 646.153 83 641.497 83H621.334Z" stroke="#9CFF00" stroke-width="2" mask="url(#path-2-outside-2_787_1729)"/>
<path d="M690.22 15.3641V36.8538H697.88C698.48 36.8538 698.968 36.703 699.344 36.4014C699.719 36.0244 699.907 35.4589 699.907 34.7048V16.9476C699.907 15.892 699.419 15.3641 698.443 15.3641H690.22ZM700.132 51.6703C700.132 50.7655 699.907 50.1623 699.457 49.8607C699.006 49.4837 698.405 49.2952 697.654 49.2952H690.22V68.6359H698.443C699.119 68.6359 699.569 68.5228 699.795 68.2966C700.02 67.9949 700.132 67.5425 700.132 66.9393V51.6703ZM715.564 33.4607C715.564 35.4966 715.151 37.2685 714.325 38.7766C713.574 40.2092 712.11 41.2271 709.932 41.8303C712.185 41.9811 713.799 42.7729 714.776 44.2055C715.827 45.6382 716.353 47.2593 716.353 49.069V70.3324C716.353 74.8566 715.414 78.0988 713.537 80.0593C711.659 82.0198 708.355 83 703.624 83H674V1H705.877C709.106 1 711.509 1.90483 713.086 3.71448C714.738 5.52414 715.564 7.93701 715.564 10.9531V33.4607Z" fill="#D6D6D6"/>
<path d="M723.06 1H754.824L757.64 16.269H739.843V35.7228H753.36V49.8607H739.843V67.731H756.964L754.148 83H723.06V1Z" fill="#D6D6D6"/>
<path d="M763.32 1H778.864L787.199 33.9131V1H803.983V83H787.199L778.414 48.7297V83H763.32V1Z" fill="#D6D6D6"/>
<path d="M810.73 1H842.494L845.31 16.269H827.513V35.7228H841.03V49.8607H827.513V67.731H844.634L841.818 83H810.73V1Z" fill="#D6D6D6"/>
<path d="M850.99 1H882.754L885.57 16.269H867.773V35.7228H881.29V49.8607H867.773V83H850.99V1Z" fill="#D6D6D6"/>
<path d="M890.59 1H906.922V83H890.59V1Z" fill="#D6D6D6"/>
<path d="M945.904 1L949.96 16.269H939.033V83H922.363V16.269H911.437L915.717 1H945.904Z" fill="#D6D6D6"/>
<path d="M958.334 83L955.406 67.731H972.978C974.254 67.731 974.893 67.1655 974.893 66.0345V51.1048C974.893 49.9738 974.667 49.2952 974.217 49.069C973.766 48.8428 972.978 48.7297 971.851 48.7297H963.403C962.202 48.7297 961.038 48.6543 959.911 48.5034C958.86 48.2772 957.884 47.8248 956.983 47.1462C956.157 46.4676 955.481 45.5251 954.955 44.3186C954.505 43.1122 954.279 41.491 954.279 39.4552V11.6317C954.279 8.38942 955.143 5.82575 956.87 3.94069C958.672 1.98023 961.488 1 965.318 1H987.846L990.662 16.269H972.189C970.837 16.269 970.162 16.8722 970.162 18.0786V33.0083C970.162 33.8377 970.349 34.4032 970.725 34.7048C971.175 35.0064 971.814 35.1572 972.64 35.1572H982.89C985.518 35.1572 987.508 35.7982 988.86 37.08C990.287 38.2864 991 40.4354 991 43.5269V70.5586C991 75.0828 990.061 78.2874 988.184 80.1724C986.382 82.0575 983.153 83 978.497 83H958.334Z" fill="#D6D6D6"/>
<g opacity="0.5">
<path d="M1364.22 14.3641V35.8538H1371.88C1372.48 35.8538 1372.97 35.703 1373.34 35.4014C1373.72 35.0244 1373.91 34.4589 1373.91 33.7048V15.9476C1373.91 14.892 1373.42 14.3641 1372.44 14.3641H1364.22ZM1374.13 50.6703C1374.13 49.7655 1373.91 49.1623 1373.46 48.8607C1373.01 48.4837 1372.41 48.2952 1371.65 48.2952H1364.22V67.6359H1372.44C1373.12 67.6359 1373.57 67.5228 1373.79 67.2966C1374.02 66.9949 1374.13 66.5425 1374.13 65.9393V50.6703ZM1389.56 32.4607C1389.56 34.4966 1389.15 36.2685 1388.33 37.7766C1387.57 39.2092 1386.11 40.2271 1383.93 40.8303C1386.18 40.9811 1387.8 41.7729 1388.78 43.2055C1389.83 44.6382 1390.35 46.2593 1390.35 48.069V69.3324C1390.35 73.8566 1389.41 77.0988 1387.54 79.0593C1385.66 81.0198 1382.36 82 1377.62 82H1348V0H1379.88C1383.11 0 1385.51 0.904827 1387.09 2.71448C1388.74 4.52414 1389.56 6.93701 1389.56 9.9531V32.4607Z" fill="#D6D6D6"/>
<path d="M1397.06 0H1428.82L1431.64 15.269H1413.84V34.7228H1427.36V48.8607H1413.84V66.731H1430.96L1428.15 82H1397.06V0Z" fill="#D6D6D6"/>
<path d="M1437.32 0H1452.86L1461.2 32.9131V0H1477.98V82H1461.2L1452.41 47.7297V82H1437.32V0Z" fill="#D6D6D6"/>
<path d="M1484.73 0H1516.49L1519.31 15.269H1501.51V34.7228H1515.03V48.8607H1501.51V66.731H1518.63L1515.82 82H1484.73V0Z" fill="#D6D6D6"/>
<path d="M1524.99 0H1556.75L1559.57 15.269H1541.77V34.7228H1555.29V48.8607H1541.77V82H1524.99V0Z" fill="#D6D6D6"/>
<path d="M1564.59 0H1580.92V82H1564.59V0Z" fill="#D6D6D6"/>
<path d="M1619.9 0L1623.96 15.269H1613.03V82H1596.36V15.269H1585.44L1589.72 0H1619.9Z" fill="#D6D6D6"/>
<path d="M1632.33 82L1629.41 66.731H1646.98C1648.25 66.731 1648.89 66.1655 1648.89 65.0345V50.1048C1648.89 48.9738 1648.67 48.2952 1648.22 48.069C1647.77 47.8428 1646.98 47.7297 1645.85 47.7297H1637.4C1636.2 47.7297 1635.04 47.6543 1633.91 47.5034C1632.86 47.2772 1631.88 46.8248 1630.98 46.1462C1630.16 45.4676 1629.48 44.5251 1628.96 43.3186C1628.5 42.1122 1628.28 40.491 1628.28 38.4552V10.6317C1628.28 7.38942 1629.14 4.82575 1630.87 2.94069C1632.67 0.980229 1635.49 0 1639.32 0H1661.85L1664.66 15.269H1646.19C1644.84 15.269 1644.16 15.8722 1644.16 17.0786V32.0083C1644.16 32.8377 1644.35 33.4032 1644.72 33.7048C1645.18 34.0064 1645.81 34.1572 1646.64 34.1572H1656.89C1659.52 34.1572 1661.51 34.7982 1662.86 36.08C1664.29 37.2864 1665 39.4354 1665 42.5269V69.5586C1665 74.0828 1664.06 77.2874 1662.18 79.1724C1660.38 81.0575 1657.15 82 1652.5 82H1632.33Z" fill="#D6D6D6"/>
</g>
<g opacity="0.5">
<path d="M16.2201 15.3641V36.8538H23.8796C24.4804 36.8538 24.9685 36.703 25.344 36.4014C25.7194 36.0244 25.9071 35.4589 25.9071 34.7048V16.9476C25.9071 15.892 25.419 15.3641 24.4428 15.3641H16.2201ZM26.1324 51.6703C26.1324 50.7655 25.9071 50.1623 25.4566 49.8607C25.006 49.4837 24.4053 49.2952 23.6544 49.2952H16.2201V68.6359H24.4428C25.1187 68.6359 25.5692 68.5228 25.7945 68.2966C26.0198 67.9949 26.1324 67.5425 26.1324 66.9393V51.6703ZM41.5641 33.4607C41.5641 35.4966 41.1511 37.2685 40.325 38.7766C39.5741 40.2092 38.1098 41.2271 35.9321 41.8303C38.1849 41.9811 39.7994 42.7729 40.7756 44.2055C41.8269 45.6382 42.3526 47.2593 42.3526 49.069V70.3324C42.3526 74.8566 41.4139 78.0988 39.5366 80.0593C37.6592 82.0198 34.3551 83 29.6243 83H0V1H31.8771C35.1061 1 37.509 1.90483 39.086 3.71448C40.7381 5.52414 41.5641 7.93701 41.5641 10.9531V33.4607Z" fill="#D6D6D6"/>
<path d="M49.0599 1H80.8243L83.6403 16.269H65.8432V35.7228H79.36V49.8607H65.8432V67.731H82.9645L80.1485 83H49.0599V1Z" fill="#D6D6D6"/>
<path d="M89.3198 1H104.864L113.199 33.9131V1H129.983V83H113.199L104.414 48.7297V83H89.3198V1Z" fill="#D6D6D6"/>
<path d="M136.73 1H168.494L171.31 16.269H153.513V35.7228H167.03V49.8607H153.513V67.731H170.634L167.818 83H136.73V1Z" fill="#D6D6D6"/>
<path d="M176.99 1H208.754L211.57 16.269H193.773V35.7228H207.29V49.8607H193.773V83H176.99V1Z" fill="#D6D6D6"/>
<path d="M216.59 1H232.922V83H216.59V1Z" fill="#D6D6D6"/>
<path d="M271.904 1L275.96 16.269H265.033V83H248.363V16.269H237.437L241.717 1H271.904Z" fill="#D6D6D6"/>
<path d="M284.334 83L281.406 67.731H298.978C300.254 67.731 300.893 67.1655 300.893 66.0345V51.1048C300.893 49.9738 300.667 49.2952 300.217 49.069C299.766 48.8428 298.978 48.7297 297.851 48.7297H289.403C288.202 48.7297 287.038 48.6543 285.911 48.5034C284.86 48.2772 283.884 47.8248 282.983 47.1462C282.157 46.4676 281.481 45.5251 280.955 44.3186C280.505 43.1122 280.279 41.491 280.279 39.4552V11.6317C280.279 8.38942 281.143 5.82575 282.87 3.94069C284.672 1.98023 287.488 1 291.318 1H313.846L316.662 16.269H298.189C296.837 16.269 296.162 16.8722 296.162 18.0786V33.0083C296.162 33.8377 296.349 34.4032 296.725 34.7048C297.175 35.0064 297.814 35.1572 298.64 35.1572H308.89C311.518 35.1572 313.508 35.7982 314.86 37.08C316.287 38.2864 317 40.4354 317 43.5269V70.5586C317 75.0828 316.061 78.2874 314.184 80.1724C312.382 82.0575 309.153 83 304.497 83H284.334Z" fill="#D6D6D6"/>
</g>
</svg>
